<?xml version="1.0" encoding="utf-8" standalone="no"?>
<!DOCTYPE svg PUBLIC "-//W3C//DTD SVG 1.1//EN"
  "http://www.w3.org/Graphics/SVG/1.1/DTD/svg11.dtd">
<!-- Created with matplotlib (https://matplotlib.org/) -->
<svg height="288pt" version="1.1" viewBox="0 0 432 288" width="432pt" xmlns="http://www.w3.org/2000/svg" xmlns:xlink="http://www.w3.org/1999/xlink">
 <defs>
  <style type="text/css">
*{stroke-linecap:butt;stroke-linejoin:round;}
  </style>
 </defs>
 <g id="figure_1">
  <g id="patch_1">
   <path d="M 0 288 
L 432 288 
L 432 0 
L 0 0 
z
" style="fill:#ffffff;"/>
  </g>
  <g id="axes_1">
   <g id="patch_2">
    <path d="M 54 252 
L 388.8 252 
L 388.8 34.56 
L 54 34.56 
z
" style="fill:#eaeaf2;"/>
   </g>
   <g id="matplotlib.axis_1">
    <g id="xtick_1">
     <g id="line2d_1">
      <path clip-path="url(#p3f75983e23)" d="M 72.696649 252 
L 72.696649 34.56 
" style="fill:none;stroke:#ffffff;stroke-linecap:round;"/>
     </g>
     <g id="text_1">
      <!-- −0.25 -->
      <defs>
       <path d="M 52.828125 31.203125 
L 5.5625 31.203125 
L 5.5625 39.40625 
L 52.828125 39.40625 
z
" id="ArialMT-8722"/>
       <path d="M 4.15625 35.296875 
Q 4.15625 48 6.765625 55.734375 
Q 9.375 63.484375 14.515625 67.671875 
Q 19.671875 71.875 27.484375 71.875 
Q 33.25 71.875 37.59375 69.546875 
Q 41.9375 67.234375 44.765625 62.859375 
Q 47.609375 58.5 49.21875 52.21875 
Q 50.828125 45.953125 50.828125 35.296875 
Q 50.828125 22.703125 48.234375 14.96875 
Q 45.65625 7.234375 40.5 3 
Q 35.359375 -1.21875 27.484375 -1.21875 
Q 17.140625 -1.21875 11.234375 6.203125 
Q 4.15625 15.140625 4.15625 35.296875 
z
M 13.1875 35.296875 
Q 13.1875 17.671875 17.3125 11.828125 
Q 21.4375 6 27.484375 6 
Q 33.546875 6 37.671875 11.859375 
Q 41.796875 17.71875 41.796875 35.296875 
Q 41.796875 52.984375 37.671875 58.78125 
Q 33.546875 64.59375 27.390625 64.59375 
Q 21.34375 64.59375 17.71875 59.46875 
Q 13.1875 52.9375 13.1875 35.296875 
z
" id="ArialMT-48"/>
       <path d="M 9.078125 0 
L 9.078125 10.015625 
L 19.09375 10.015625 
L 19.09375 0 
z
" id="ArialMT-46"/>
       <path d="M 50.34375 8.453125 
L 50.34375 0 
L 3.03125 0 
Q 2.9375 3.171875 4.046875 6.109375 
Q 5.859375 10.9375 9.828125 15.625 
Q 13.8125 20.3125 21.34375 26.46875 
Q 33.015625 36.03125 37.109375 41.625 
Q 41.21875 47.21875 41.21875 52.203125 
Q 41.21875 57.421875 37.46875 61 
Q 33.734375 64.59375 27.734375 64.59375 
Q 21.390625 64.59375 17.578125 60.78125 
Q 13.765625 56.984375 13.71875 50.25 
L 4.6875 51.171875 
Q 5.609375 61.28125 11.65625 66.578125 
Q 17.71875 71.875 27.9375 71.875 
Q 38.234375 71.875 44.234375 66.15625 
Q 50.25 60.453125 50.25 52 
Q 50.25 47.703125 48.484375 43.546875 
Q 46.734375 39.40625 42.65625 34.8125 
Q 38.578125 30.21875 29.109375 22.21875 
Q 21.1875 15.578125 18.9375 13.203125 
Q 16.703125 10.84375 15.234375 8.453125 
z
" id="ArialMT-50"/>
       <path d="M 4.15625 18.75 
L 13.375 19.53125 
Q 14.40625 12.796875 18.140625 9.390625 
Q 21.875 6 27.15625 6 
Q 33.5 6 37.890625 10.78125 
Q 42.28125 15.578125 42.28125 23.484375 
Q 42.28125 31 38.0625 35.34375 
Q 33.84375 39.703125 27 39.703125 
Q 22.75 39.703125 19.328125 37.765625 
Q 15.921875 35.84375 13.96875 32.765625 
L 5.71875 33.84375 
L 12.640625 70.609375 
L 48.25 70.609375 
L 48.25 62.203125 
L 19.671875 62.203125 
L 15.828125 42.96875 
Q 22.265625 47.46875 29.34375 47.46875 
Q 38.71875 47.46875 45.15625 40.96875 
Q 51.609375 34.46875 51.609375 24.265625 
Q 51.609375 14.546875 45.953125 7.46875 
Q 39.0625 -1.21875 27.15625 -1.21875 
Q 17.390625 -1.21875 11.203125 4.25 
Q 5.03125 9.71875 4.15625 18.75 
z
" id="ArialMT-53"/>
      </defs>
      <g style="fill:#262626;" transform="translate(58.78079 269.373594)scale(0.11 -0.11)">
       <use xlink:href="#ArialMT-8722"/>
       <use x="58.398438" xlink:href="#ArialMT-48"/>
       <use x="114.013672" xlink:href="#ArialMT-46"/>
       <use x="141.796875" xlink:href="#ArialMT-50"/>
       <use x="197.412109" xlink:href="#ArialMT-53"/>
      </g>
     </g>
    </g>
    <g id="xtick_2">
     <g id="line2d_2">
      <path clip-path="url(#p3f75983e23)" d="M 127.142372 252 
L 127.142372 34.56 
" style="fill:none;stroke:#ffffff;stroke-linecap:round;"/>
     </g>
     <g id="text_2">
      <!-- −0.20 -->
      <g style="fill:#262626;" transform="translate(113.226513 269.373594)scale(0.11 -0.11)">
       <use xlink:href="#ArialMT-8722"/>
       <use x="58.398438" xlink:href="#ArialMT-48"/>
       <use x="114.013672" xlink:href="#ArialMT-46"/>
       <use x="141.796875" xlink:href="#ArialMT-50"/>
       <use x="197.412109" xlink:href="#ArialMT-48"/>
      </g>
     </g>
    </g>
    <g id="xtick_3">
     <g id="line2d_3">
      <path clip-path="url(#p3f75983e23)" d="M 181.588094 252 
L 181.588094 34.56 
" style="fill:none;stroke:#ffffff;stroke-linecap:round;"/>
     </g>
     <g id="text_3">
      <!-- −0.15 -->
      <defs>
       <path d="M 37.25 0 
L 28.46875 0 
L 28.46875 56 
Q 25.296875 52.984375 20.140625 49.953125 
Q 14.984375 46.921875 10.890625 45.40625 
L 10.890625 53.90625 
Q 18.265625 57.375 23.78125 62.296875 
Q 29.296875 67.234375 31.59375 71.875 
L 37.25 71.875 
z
" id="ArialMT-49"/>
      </defs>
      <g style="fill:#262626;" transform="translate(167.672235 269.373594)scale(0.11 -0.11)">
       <use xlink:href="#ArialMT-8722"/>
       <use x="58.398438" xlink:href="#ArialMT-48"/>
       <use x="114.013672" xlink:href="#ArialMT-46"/>
       <use x="141.796875" xlink:href="#ArialMT-49"/>
       <use x="197.412109" xlink:href="#ArialMT-53"/>
      </g>
     </g>
    </g>
    <g id="xtick_4">
     <g id="line2d_4">
      <path clip-path="url(#p3f75983e23)" d="M 236.033817 252 
L 236.033817 34.56 
" style="fill:none;stroke:#ffffff;stroke-linecap:round;"/>
     </g>
     <g id="text_4">
      <!-- −0.10 -->
      <g style="fill:#262626;" transform="translate(222.117957 269.373594)scale(0.11 -0.11)">
       <use xlink:href="#ArialMT-8722"/>
       <use x="58.398438" xlink:href="#ArialMT-48"/>
       <use x="114.013672" xlink:href="#ArialMT-46"/>
       <use x="141.796875" xlink:href="#ArialMT-49"/>
       <use x="197.412109" xlink:href="#ArialMT-48"/>
      </g>
     </g>
    </g>
    <g id="xtick_5">
     <g id="line2d_5">
      <path clip-path="url(#p3f75983e23)" d="M 290.479539 252 
L 290.479539 34.56 
" style="fill:none;stroke:#ffffff;stroke-linecap:round;"/>
     </g>
     <g id="text_5">
      <!-- −0.05 -->
      <g style="fill:#262626;" transform="translate(276.56368 269.373594)scale(0.11 -0.11)">
       <use xlink:href="#ArialMT-8722"/>
       <use x="58.398438" xlink:href="#ArialMT-48"/>
       <use x="114.013672" xlink:href="#ArialMT-46"/>
       <use x="141.796875" xlink:href="#ArialMT-48"/>
       <use x="197.412109" xlink:href="#ArialMT-53"/>
      </g>
     </g>
    </g>
    <g id="xtick_6">
     <g id="line2d_6">
      <path clip-path="url(#p3f75983e23)" d="M 344.925262 252 
L 344.925262 34.56 
" style="fill:none;stroke:#ffffff;stroke-linecap:round;"/>
     </g>
     <g id="text_6">
      <!-- 0.00 -->
      <g style="fill:#262626;" transform="translate(334.221746 269.373594)scale(0.11 -0.11)">
       <use xlink:href="#ArialMT-48"/>
       <use x="55.615234" xlink:href="#ArialMT-46"/>
       <use x="83.398438" xlink:href="#ArialMT-48"/>
       <use x="139.013672" xlink:href="#ArialMT-48"/>
      </g>
     </g>
    </g>
    <g id="text_7">
     <!-- Growth Rate -->
     <defs>
      <path d="M 41.21875 28.078125 
L 41.21875 36.46875 
L 71.53125 36.53125 
L 71.53125 9.96875 
Q 64.546875 4.390625 57.125 1.578125 
Q 49.703125 -1.21875 41.890625 -1.21875 
Q 31.34375 -1.21875 22.71875 3.296875 
Q 14.109375 7.8125 9.71875 16.359375 
Q 5.328125 24.90625 5.328125 35.453125 
Q 5.328125 45.90625 9.6875 54.953125 
Q 14.0625 64.015625 22.265625 68.40625 
Q 30.46875 72.796875 41.15625 72.796875 
Q 48.921875 72.796875 55.1875 70.28125 
Q 61.46875 67.78125 65.03125 63.28125 
Q 68.609375 58.796875 70.453125 51.5625 
L 61.921875 49.21875 
Q 60.296875 54.6875 57.90625 57.8125 
Q 55.515625 60.9375 51.0625 62.8125 
Q 46.625 64.703125 41.21875 64.703125 
Q 34.71875 64.703125 29.984375 62.71875 
Q 25.25 60.75 22.34375 57.515625 
Q 19.4375 54.296875 17.828125 50.4375 
Q 15.09375 43.796875 15.09375 36.03125 
Q 15.09375 26.46875 18.390625 20.015625 
Q 21.6875 13.578125 27.984375 10.453125 
Q 34.28125 7.328125 41.359375 7.328125 
Q 47.515625 7.328125 53.375 9.6875 
Q 59.234375 12.0625 62.25 14.75 
L 62.25 28.078125 
z
" id="ArialMT-71"/>
      <path d="M 6.5 0 
L 6.5 51.859375 
L 14.40625 51.859375 
L 14.40625 44 
Q 17.4375 49.515625 20 51.265625 
Q 22.5625 53.03125 25.640625 53.03125 
Q 30.078125 53.03125 34.671875 50.203125 
L 31.640625 42.046875 
Q 28.421875 43.953125 25.203125 43.953125 
Q 22.3125 43.953125 20.015625 42.21875 
Q 17.71875 40.484375 16.75 37.40625 
Q 15.28125 32.71875 15.28125 27.15625 
L 15.28125 0 
z
" id="ArialMT-114"/>
      <path d="M 3.328125 25.921875 
Q 3.328125 40.328125 11.328125 47.265625 
Q 18.015625 53.03125 27.640625 53.03125 
Q 38.328125 53.03125 45.109375 46.015625 
Q 51.90625 39.015625 51.90625 26.65625 
Q 51.90625 16.65625 48.90625 10.90625 
Q 45.90625 5.171875 40.15625 2 
Q 34.421875 -1.171875 27.640625 -1.171875 
Q 16.75 -1.171875 10.03125 5.8125 
Q 3.328125 12.796875 3.328125 25.921875 
z
M 12.359375 25.921875 
Q 12.359375 15.96875 16.703125 11.015625 
Q 21.046875 6.0625 27.640625 6.0625 
Q 34.1875 6.0625 38.53125 11.03125 
Q 42.875 16.015625 42.875 26.21875 
Q 42.875 35.84375 38.5 40.796875 
Q 34.125 45.75 27.640625 45.75 
Q 21.046875 45.75 16.703125 40.8125 
Q 12.359375 35.890625 12.359375 25.921875 
z
" id="ArialMT-111"/>
      <path d="M 16.15625 0 
L 0.296875 51.859375 
L 9.375 51.859375 
L 17.625 21.921875 
L 20.703125 10.796875 
Q 20.90625 11.625 23.390625 21.484375 
L 31.640625 51.859375 
L 40.671875 51.859375 
L 48.4375 21.78125 
L 51.03125 11.859375 
L 54 21.875 
L 62.890625 51.859375 
L 71.4375 51.859375 
L 55.21875 0 
L 46.09375 0 
L 37.84375 31.0625 
L 35.84375 39.890625 
L 25.34375 0 
z
" id="ArialMT-119"/>
      <path d="M 25.78125 7.859375 
L 27.046875 0.09375 
Q 23.34375 -0.6875 20.40625 -0.6875 
Q 15.625 -0.6875 12.984375 0.828125 
Q 10.359375 2.34375 9.28125 4.8125 
Q 8.203125 7.28125 8.203125 15.1875 
L 8.203125 45.015625 
L 1.765625 45.015625 
L 1.765625 51.859375 
L 8.203125 51.859375 
L 8.203125 64.703125 
L 16.9375 69.96875 
L 16.9375 51.859375 
L 25.78125 51.859375 
L 25.78125 45.015625 
L 16.9375 45.015625 
L 16.9375 14.703125 
Q 16.9375 10.9375 17.40625 9.859375 
Q 17.875 8.796875 18.921875 8.15625 
Q 19.96875 7.515625 21.921875 7.515625 
Q 23.390625 7.515625 25.78125 7.859375 
z
" id="ArialMT-116"/>
      <path d="M 6.59375 0 
L 6.59375 71.578125 
L 15.375 71.578125 
L 15.375 45.90625 
Q 21.53125 53.03125 30.90625 53.03125 
Q 36.671875 53.03125 40.921875 50.75 
Q 45.171875 48.484375 47 44.484375 
Q 48.828125 40.484375 48.828125 32.859375 
L 48.828125 0 
L 40.046875 0 
L 40.046875 32.859375 
Q 40.046875 39.453125 37.1875 42.453125 
Q 34.328125 45.453125 29.109375 45.453125 
Q 25.203125 45.453125 21.75 43.421875 
Q 18.3125 41.40625 16.84375 37.9375 
Q 15.375 34.46875 15.375 28.375 
L 15.375 0 
z
" id="ArialMT-104"/>
      <path id="ArialMT-32"/>
      <path d="M 7.859375 0 
L 7.859375 71.578125 
L 39.59375 71.578125 
Q 49.171875 71.578125 54.140625 69.640625 
Q 59.125 67.71875 62.109375 62.828125 
Q 65.09375 57.953125 65.09375 52.046875 
Q 65.09375 44.4375 60.15625 39.203125 
Q 55.21875 33.984375 44.921875 32.5625 
Q 48.6875 30.765625 50.640625 29 
Q 54.78125 25.203125 58.5 19.484375 
L 70.953125 0 
L 59.03125 0 
L 49.5625 14.890625 
Q 45.40625 21.34375 42.71875 24.75 
Q 40.046875 28.171875 37.921875 29.53125 
Q 35.796875 30.90625 33.59375 31.453125 
Q 31.984375 31.78125 28.328125 31.78125 
L 17.328125 31.78125 
L 17.328125 0 
z
M 17.328125 39.984375 
L 37.703125 39.984375 
Q 44.1875 39.984375 47.84375 41.328125 
Q 51.515625 42.671875 53.421875 45.625 
Q 55.328125 48.578125 55.328125 52.046875 
Q 55.328125 57.125 51.640625 60.390625 
Q 47.953125 63.671875 39.984375 63.671875 
L 17.328125 63.671875 
z
" id="ArialMT-82"/>
      <path d="M 40.4375 6.390625 
Q 35.546875 2.25 31.03125 0.53125 
Q 26.515625 -1.171875 21.34375 -1.171875 
Q 12.796875 -1.171875 8.203125 3 
Q 3.609375 7.171875 3.609375 13.671875 
Q 3.609375 17.484375 5.34375 20.625 
Q 7.078125 23.78125 9.890625 25.6875 
Q 12.703125 27.59375 16.21875 28.5625 
Q 18.796875 29.25 24.03125 29.890625 
Q 34.671875 31.15625 39.703125 32.90625 
Q 39.75 34.71875 39.75 35.203125 
Q 39.75 40.578125 37.25 42.78125 
Q 33.890625 45.75 27.25 45.75 
Q 21.046875 45.75 18.09375 43.578125 
Q 15.140625 41.40625 13.71875 35.890625 
L 5.125 37.0625 
Q 6.296875 42.578125 8.984375 45.96875 
Q 11.671875 49.359375 16.75 51.1875 
Q 21.828125 53.03125 28.515625 53.03125 
Q 35.15625 53.03125 39.296875 51.46875 
Q 43.453125 49.90625 45.40625 47.53125 
Q 47.359375 45.171875 48.140625 41.546875 
Q 48.578125 39.3125 48.578125 33.453125 
L 48.578125 21.734375 
Q 48.578125 9.46875 49.140625 6.21875 
Q 49.703125 2.984375 51.375 0 
L 42.1875 0 
Q 40.828125 2.734375 40.4375 6.390625 
z
M 39.703125 26.03125 
Q 34.90625 24.078125 25.34375 22.703125 
Q 19.921875 21.921875 17.671875 20.9375 
Q 15.4375 19.96875 14.203125 18.09375 
Q 12.984375 16.21875 12.984375 13.921875 
Q 12.984375 10.40625 15.640625 8.0625 
Q 18.3125 5.71875 23.4375 5.71875 
Q 28.515625 5.71875 32.46875 7.9375 
Q 36.421875 10.15625 38.28125 14.015625 
Q 39.703125 17 39.703125 22.796875 
z
" id="ArialMT-97"/>
      <path d="M 42.09375 16.703125 
L 51.171875 15.578125 
Q 49.03125 7.625 43.21875 3.21875 
Q 37.40625 -1.171875 28.375 -1.171875 
Q 17 -1.171875 10.328125 5.828125 
Q 3.65625 12.84375 3.65625 25.484375 
Q 3.65625 38.578125 10.390625 45.796875 
Q 17.140625 53.03125 27.875 53.03125 
Q 38.28125 53.03125 44.875 45.953125 
Q 51.46875 38.875 51.46875 26.03125 
Q 51.46875 25.25 51.421875 23.6875 
L 12.75 23.6875 
Q 13.234375 15.140625 17.578125 10.59375 
Q 21.921875 6.0625 28.421875 6.0625 
Q 33.25 6.0625 36.671875 8.59375 
Q 40.09375 11.140625 42.09375 16.703125 
z
M 13.234375 30.90625 
L 42.1875 30.90625 
Q 41.609375 37.453125 38.875 40.71875 
Q 34.671875 45.796875 27.984375 45.796875 
Q 21.921875 45.796875 17.796875 41.75 
Q 13.671875 37.703125 13.234375 30.90625 
z
" id="ArialMT-101"/>
     </defs>
     <g style="fill:#262626;" transform="translate(187.722188 284.149219)scale(0.12 -0.12)">
      <use xlink:href="#ArialMT-71"/>
      <use x="77.783203" xlink:href="#ArialMT-114"/>
      <use x="111.083984" xlink:href="#ArialMT-111"/>
      <use x="166.699219" xlink:href="#ArialMT-119"/>
      <use x="238.916016" xlink:href="#ArialMT-116"/>
      <use x="266.699219" xlink:href="#ArialMT-104"/>
      <use x="322.314453" xlink:href="#ArialMT-32"/>
      <use x="350.097656" xlink:href="#ArialMT-82"/>
      <use x="422.314453" xlink:href="#ArialMT-97"/>
      <use x="477.929688" xlink:href="#ArialMT-116"/>
      <use x="505.712891" xlink:href="#ArialMT-101"/>
     </g>
    </g>
   </g>
   <g id="matplotlib.axis_2">
    <g id="ytick_1">
     <g id="line2d_7">
      <path clip-path="url(#p3f75983e23)" d="M 54 252 
L 388.8 252 
" style="fill:none;stroke:#ffffff;stroke-linecap:round;"/>
     </g>
     <g id="text_8">
      <!-- 0 -->
      <g style="fill:#262626;" transform="translate(38.382969 255.936797)scale(0.11 -0.11)">
       <use xlink:href="#ArialMT-48"/>
      </g>
     </g>
    </g>
    <g id="ytick_2">
     <g id="line2d_8">
      <path clip-path="url(#p3f75983e23)" d="M 54 223.160458 
L 388.8 223.160458 
" style="fill:none;stroke:#ffffff;stroke-linecap:round;"/>
     </g>
     <g id="text_9">
      <!-- 1 -->
      <g style="fill:#262626;" transform="translate(38.382969 227.097254)scale(0.11 -0.11)">
       <use xlink:href="#ArialMT-49"/>
      </g>
     </g>
    </g>
    <g id="ytick_3">
     <g id="line2d_9">
      <path clip-path="url(#p3f75983e23)" d="M 54 194.320915 
L 388.8 194.320915 
" style="fill:none;stroke:#ffffff;stroke-linecap:round;"/>
     </g>
     <g id="text_10">
      <!-- 2 -->
      <g style="fill:#262626;" transform="translate(38.382969 198.257712)scale(0.11 -0.11)">
       <use xlink:href="#ArialMT-50"/>
      </g>
     </g>
    </g>
    <g id="ytick_4">
     <g id="line2d_10">
      <path clip-path="url(#p3f75983e23)" d="M 54 165.481373 
L 388.8 165.481373 
" style="fill:none;stroke:#ffffff;stroke-linecap:round;"/>
     </g>
     <g id="text_11">
      <!-- 3 -->
      <defs>
       <path d="M 4.203125 18.890625 
L 12.984375 20.0625 
Q 14.5 12.59375 18.140625 9.296875 
Q 21.78125 6 27 6 
Q 33.203125 6 37.46875 10.296875 
Q 41.75 14.59375 41.75 20.953125 
Q 41.75 27 37.796875 30.921875 
Q 33.84375 34.859375 27.734375 34.859375 
Q 25.25 34.859375 21.53125 33.890625 
L 22.515625 41.609375 
Q 23.390625 41.5 23.921875 41.5 
Q 29.546875 41.5 34.03125 44.421875 
Q 38.53125 47.359375 38.53125 53.46875 
Q 38.53125 58.296875 35.25 61.46875 
Q 31.984375 64.65625 26.8125 64.65625 
Q 21.6875 64.65625 18.265625 61.421875 
Q 14.84375 58.203125 13.875 51.765625 
L 5.078125 53.328125 
Q 6.6875 62.15625 12.390625 67.015625 
Q 18.109375 71.875 26.609375 71.875 
Q 32.46875 71.875 37.390625 69.359375 
Q 42.328125 66.84375 44.9375 62.5 
Q 47.5625 58.15625 47.5625 53.265625 
Q 47.5625 48.640625 45.0625 44.828125 
Q 42.578125 41.015625 37.703125 38.765625 
Q 44.046875 37.3125 47.5625 32.6875 
Q 51.078125 28.078125 51.078125 21.140625 
Q 51.078125 11.765625 44.234375 5.25 
Q 37.40625 -1.265625 26.953125 -1.265625 
Q 17.53125 -1.265625 11.296875 4.34375 
Q 5.078125 9.96875 4.203125 18.890625 
z
" id="ArialMT-51"/>
      </defs>
      <g style="fill:#262626;" transform="translate(38.382969 169.41817)scale(0.11 -0.11)">
       <use xlink:href="#ArialMT-51"/>
      </g>
     </g>
    </g>
    <g id="ytick_5">
     <g id="line2d_11">
      <path clip-path="url(#p3f75983e23)" d="M 54 136.64183 
L 388.8 136.64183 
" style="fill:none;stroke:#ffffff;stroke-linecap:round;"/>
     </g>
     <g id="text_12">
      <!-- 4 -->
      <defs>
       <path d="M 32.328125 0 
L 32.328125 17.140625 
L 1.265625 17.140625 
L 1.265625 25.203125 
L 33.9375 71.578125 
L 41.109375 71.578125 
L 41.109375 25.203125 
L 50.78125 25.203125 
L 50.78125 17.140625 
L 41.109375 17.140625 
L 41.109375 0 
z
M 32.328125 25.203125 
L 32.328125 57.46875 
L 9.90625 25.203125 
z
" id="ArialMT-52"/>
      </defs>
      <g style="fill:#262626;" transform="translate(38.382969 140.578627)scale(0.11 -0.11)">
       <use xlink:href="#ArialMT-52"/>
      </g>
     </g>
    </g>
    <g id="ytick_6">
     <g id="line2d_12">
      <path clip-path="url(#p3f75983e23)" d="M 54 107.802288 
L 388.8 107.802288 
" style="fill:none;stroke:#ffffff;stroke-linecap:round;"/>
     </g>
     <g id="text_13">
      <!-- 5 -->
      <g style="fill:#262626;" transform="translate(38.382969 111.739085)scale(0.11 -0.11)">
       <use xlink:href="#ArialMT-53"/>
      </g>
     </g>
    </g>
    <g id="ytick_7">
     <g id="line2d_13">
      <path clip-path="url(#p3f75983e23)" d="M 54 78.962746 
L 388.8 78.962746 
" style="fill:none;stroke:#ffffff;stroke-linecap:round;"/>
     </g>
     <g id="text_14">
      <!-- 6 -->
      <defs>
       <path d="M 49.75 54.046875 
L 41.015625 53.375 
Q 39.84375 58.546875 37.703125 60.890625 
Q 34.125 64.65625 28.90625 64.65625 
Q 24.703125 64.65625 21.53125 62.3125 
Q 17.390625 59.28125 14.984375 53.46875 
Q 12.59375 47.65625 12.5 36.921875 
Q 15.671875 41.75 20.265625 44.09375 
Q 24.859375 46.4375 29.890625 46.4375 
Q 38.671875 46.4375 44.84375 39.96875 
Q 51.03125 33.5 51.03125 23.25 
Q 51.03125 16.5 48.125 10.71875 
Q 45.21875 4.9375 40.140625 1.859375 
Q 35.0625 -1.21875 28.609375 -1.21875 
Q 17.625 -1.21875 10.6875 6.859375 
Q 3.765625 14.9375 3.765625 33.5 
Q 3.765625 54.25 11.421875 63.671875 
Q 18.109375 71.875 29.4375 71.875 
Q 37.890625 71.875 43.28125 67.140625 
Q 48.6875 62.40625 49.75 54.046875 
z
M 13.875 23.1875 
Q 13.875 18.65625 15.796875 14.5 
Q 17.71875 10.359375 21.1875 8.171875 
Q 24.65625 6 28.46875 6 
Q 34.03125 6 38.03125 10.484375 
Q 42.046875 14.984375 42.046875 22.703125 
Q 42.046875 30.125 38.078125 34.390625 
Q 34.125 38.671875 28.125 38.671875 
Q 22.171875 38.671875 18.015625 34.390625 
Q 13.875 30.125 13.875 23.1875 
z
" id="ArialMT-54"/>
      </defs>
      <g style="fill:#262626;" transform="translate(38.382969 82.899542)scale(0.11 -0.11)">
       <use xlink:href="#ArialMT-54"/>
      </g>
     </g>
    </g>
    <g id="ytick_8">
     <g id="line2d_14">
      <path clip-path="url(#p3f75983e23)" d="M 54 50.123203 
L 388.8 50.123203 
" style="fill:none;stroke:#ffffff;stroke-linecap:round;"/>
     </g>
     <g id="text_15">
      <!-- 7 -->
      <defs>
       <path d="M 4.734375 62.203125 
L 4.734375 70.65625 
L 51.078125 70.65625 
L 51.078125 63.8125 
Q 44.234375 56.546875 37.515625 44.484375 
Q 30.8125 32.421875 27.15625 19.671875 
Q 24.515625 10.6875 23.78125 0 
L 14.75 0 
Q 14.890625 8.453125 18.0625 20.40625 
Q 21.234375 32.375 27.171875 43.484375 
Q 33.109375 54.59375 39.796875 62.203125 
z
" id="ArialMT-55"/>
      </defs>
      <g style="fill:#262626;" transform="translate(38.382969 54.06)scale(0.11 -0.11)">
       <use xlink:href="#ArialMT-55"/>
      </g>
     </g>
    </g>
    <g id="text_16">
     <!-- Density -->
     <defs>
      <path d="M 7.71875 0 
L 7.71875 71.578125 
L 32.375 71.578125 
Q 40.71875 71.578125 45.125 70.5625 
Q 51.265625 69.140625 55.609375 65.4375 
Q 61.28125 60.640625 64.078125 53.1875 
Q 66.890625 45.75 66.890625 36.1875 
Q 66.890625 28.03125 64.984375 21.734375 
Q 63.09375 15.4375 60.109375 11.296875 
Q 57.125 7.171875 53.578125 4.796875 
Q 50.046875 2.4375 45.046875 1.21875 
Q 40.046875 0 33.546875 0 
z
M 17.1875 8.453125 
L 32.46875 8.453125 
Q 39.546875 8.453125 43.578125 9.765625 
Q 47.609375 11.078125 50 13.484375 
Q 53.375 16.84375 55.25 22.53125 
Q 57.125 28.21875 57.125 36.328125 
Q 57.125 47.5625 53.4375 53.59375 
Q 49.75 59.625 44.484375 61.671875 
Q 40.671875 63.140625 32.234375 63.140625 
L 17.1875 63.140625 
z
" id="ArialMT-68"/>
      <path d="M 6.59375 0 
L 6.59375 51.859375 
L 14.5 51.859375 
L 14.5 44.484375 
Q 20.21875 53.03125 31 53.03125 
Q 35.6875 53.03125 39.625 51.34375 
Q 43.5625 49.65625 45.515625 46.921875 
Q 47.46875 44.1875 48.25 40.4375 
Q 48.734375 37.984375 48.734375 31.890625 
L 48.734375 0 
L 39.9375 0 
L 39.9375 31.546875 
Q 39.9375 36.921875 38.90625 39.578125 
Q 37.890625 42.234375 35.28125 43.8125 
Q 32.671875 45.40625 29.15625 45.40625 
Q 23.53125 45.40625 19.453125 41.84375 
Q 15.375 38.28125 15.375 28.328125 
L 15.375 0 
z
" id="ArialMT-110"/>
      <path d="M 3.078125 15.484375 
L 11.765625 16.84375 
Q 12.5 11.625 15.84375 8.84375 
Q 19.1875 6.0625 25.203125 6.0625 
Q 31.25 6.0625 34.171875 8.515625 
Q 37.109375 10.984375 37.109375 14.3125 
Q 37.109375 17.28125 34.515625 19 
Q 32.71875 20.171875 25.53125 21.96875 
Q 15.875 24.421875 12.140625 26.203125 
Q 8.40625 27.984375 6.46875 31.125 
Q 4.546875 34.28125 4.546875 38.09375 
Q 4.546875 41.546875 6.125 44.5 
Q 7.71875 47.46875 10.453125 49.421875 
Q 12.5 50.921875 16.03125 51.96875 
Q 19.578125 53.03125 23.640625 53.03125 
Q 29.734375 53.03125 34.34375 51.265625 
Q 38.96875 49.515625 41.15625 46.5 
Q 43.359375 43.5 44.1875 38.484375 
L 35.59375 37.3125 
Q 35.015625 41.3125 32.203125 43.546875 
Q 29.390625 45.796875 24.265625 45.796875 
Q 18.21875 45.796875 15.625 43.796875 
Q 13.03125 41.796875 13.03125 39.109375 
Q 13.03125 37.40625 14.109375 36.03125 
Q 15.1875 34.625 17.484375 33.6875 
Q 18.796875 33.203125 25.25 31.453125 
Q 34.578125 28.953125 38.25 27.359375 
Q 41.9375 25.78125 44.03125 22.75 
Q 46.140625 19.734375 46.140625 15.234375 
Q 46.140625 10.84375 43.578125 6.953125 
Q 41.015625 3.078125 36.171875 0.953125 
Q 31.34375 -1.171875 25.25 -1.171875 
Q 15.140625 -1.171875 9.84375 3.03125 
Q 4.546875 7.234375 3.078125 15.484375 
z
" id="ArialMT-115"/>
      <path d="M 6.640625 61.46875 
L 6.640625 71.578125 
L 15.4375 71.578125 
L 15.4375 61.46875 
z
M 6.640625 0 
L 6.640625 51.859375 
L 15.4375 51.859375 
L 15.4375 0 
z
" id="ArialMT-105"/>
      <path d="M 6.203125 -19.96875 
L 5.21875 -11.71875 
Q 8.109375 -12.5 10.25 -12.5 
Q 13.1875 -12.5 14.9375 -11.515625 
Q 16.703125 -10.546875 17.828125 -8.796875 
Q 18.65625 -7.46875 20.515625 -2.25 
Q 20.75 -1.515625 21.296875 -0.09375 
L 1.609375 51.859375 
L 11.078125 51.859375 
L 21.875 21.828125 
Q 23.96875 16.109375 25.640625 9.8125 
Q 27.15625 15.875 29.25 21.625 
L 40.328125 51.859375 
L 49.125 51.859375 
L 29.390625 -0.875 
Q 26.21875 -9.421875 24.46875 -12.640625 
Q 22.125 -17 19.09375 -19.015625 
Q 16.0625 -21.046875 11.859375 -21.046875 
Q 9.328125 -21.046875 6.203125 -19.96875 
z
" id="ArialMT-121"/>
     </defs>
     <g style="fill:#262626;" transform="translate(31.857344 163.28625)rotate(-90)scale(0.12 -0.12)">
      <use xlink:href="#ArialMT-68"/>
      <use x="72.216797" xlink:href="#ArialMT-101"/>
      <use x="127.832031" xlink:href="#ArialMT-110"/>
      <use x="183.447266" xlink:href="#ArialMT-115"/>
      <use x="233.447266" xlink:href="#ArialMT-105"/>
      <use x="255.664062" xlink:href="#ArialMT-116"/>
      <use x="283.447266" xlink:href="#ArialMT-121"/>
     </g>
    </g>
   </g>
   <g id="LineCollection_1">
    <path clip-path="url(#p3f75983e23)" d="M 183.225202 252 
L 183.225202 241.128 
" style="fill:none;stroke:#4c72b0;"/>
    <path clip-path="url(#p3f75983e23)" d="M 281.574804 252 
L 281.574804 241.128 
" style="fill:none;stroke:#4c72b0;"/>
    <path clip-path="url(#p3f75983e23)" d="M 292.628612 252 
L 292.628612 241.128 
" style="fill:none;stroke:#4c72b0;"/>
    <path clip-path="url(#p3f75983e23)" d="M 158.968201 252 
L 158.968201 241.128 
" style="fill:none;stroke:#4c72b0;"/>
    <path clip-path="url(#p3f75983e23)" d="M 288.659752 252 
L 288.659752 241.128 
" style="fill:none;stroke:#4c72b0;"/>
    <path clip-path="url(#p3f75983e23)" d="M 238.919548 252 
L 238.919548 241.128 
" style="fill:none;stroke:#4c72b0;"/>
    <path clip-path="url(#p3f75983e23)" d="M 169.580741 252 
L 169.580741 241.128 
" style="fill:none;stroke:#4c72b0;"/>
    <path clip-path="url(#p3f75983e23)" d="M 174.797019 252 
L 174.797019 241.128 
" style="fill:none;stroke:#4c72b0;"/>
    <path clip-path="url(#p3f75983e23)" d="M 303.889747 252 
L 303.889747 241.128 
" style="fill:none;stroke:#4c72b0;"/>
    <path clip-path="url(#p3f75983e23)" d="M 265.366973 252 
L 265.366973 241.128 
" style="fill:none;stroke:#4c72b0;"/>
    <path clip-path="url(#p3f75983e23)" d="M 160.848704 252 
L 160.848704 241.128 
" style="fill:none;stroke:#4c72b0;"/>
    <path clip-path="url(#p3f75983e23)" d="M 153.745227 252 
L 153.745227 241.128 
" style="fill:none;stroke:#4c72b0;"/>
    <path clip-path="url(#p3f75983e23)" d="M 304.457343 252 
L 304.457343 241.128 
" style="fill:none;stroke:#4c72b0;"/>
    <path clip-path="url(#p3f75983e23)" d="M 187.559683 252 
L 187.559683 241.128 
" style="fill:none;stroke:#4c72b0;"/>
    <path clip-path="url(#p3f75983e23)" d="M 281.533412 252 
L 281.533412 241.128 
" style="fill:none;stroke:#4c72b0;"/>
    <path clip-path="url(#p3f75983e23)" d="M 309.262374 252 
L 309.262374 241.128 
" style="fill:none;stroke:#4c72b0;"/>
    <path clip-path="url(#p3f75983e23)" d="M 190.41094 252 
L 190.41094 241.128 
" style="fill:none;stroke:#4c72b0;"/>
    <path clip-path="url(#p3f75983e23)" d="M 172.808107 252 
L 172.808107 241.128 
" style="fill:none;stroke:#4c72b0;"/>
    <path clip-path="url(#p3f75983e23)" d="M 281.885853 252 
L 281.885853 241.128 
" style="fill:none;stroke:#4c72b0;"/>
    <path clip-path="url(#p3f75983e23)" d="M 197.123285 252 
L 197.123285 241.128 
" style="fill:none;stroke:#4c72b0;"/>
    <path clip-path="url(#p3f75983e23)" d="M 235.670021 252 
L 235.670021 241.128 
" style="fill:none;stroke:#4c72b0;"/>
    <path clip-path="url(#p3f75983e23)" d="M 263.255028 252 
L 263.255028 241.128 
" style="fill:none;stroke:#4c72b0;"/>
    <path clip-path="url(#p3f75983e23)" d="M 188.840668 252 
L 188.840668 241.128 
" style="fill:none;stroke:#4c72b0;"/>
    <path clip-path="url(#p3f75983e23)" d="M 192.42838 252 
L 192.42838 241.128 
" style="fill:none;stroke:#4c72b0;"/>
    <path clip-path="url(#p3f75983e23)" d="M 263.077677 252 
L 263.077677 241.128 
" style="fill:none;stroke:#4c72b0;"/>
    <path clip-path="url(#p3f75983e23)" d="M 252.558579 252 
L 252.558579 241.128 
" style="fill:none;stroke:#4c72b0;"/>
    <path clip-path="url(#p3f75983e23)" d="M 234.707203 252 
L 234.707203 241.128 
" style="fill:none;stroke:#4c72b0;"/>
    <path clip-path="url(#p3f75983e23)" d="M 242.663178 252 
L 242.663178 241.128 
" style="fill:none;stroke:#4c72b0;"/>
    <path clip-path="url(#p3f75983e23)" d="M 190.413999 252 
L 190.413999 241.128 
" style="fill:none;stroke:#4c72b0;"/>
    <path clip-path="url(#p3f75983e23)" d="M 135.678667 252 
L 135.678667 241.128 
" style="fill:none;stroke:#4c72b0;"/>
    <path clip-path="url(#p3f75983e23)" d="M 230.096985 252 
L 230.096985 241.128 
" style="fill:none;stroke:#4c72b0;"/>
    <path clip-path="url(#p3f75983e23)" d="M 213.632838 252 
L 213.632838 241.128 
" style="fill:none;stroke:#4c72b0;"/>
    <path clip-path="url(#p3f75983e23)" d="M 281.204636 252 
L 281.204636 241.128 
" style="fill:none;stroke:#4c72b0;"/>
    <path clip-path="url(#p3f75983e23)" d="M 272.01656 252 
L 272.01656 241.128 
" style="fill:none;stroke:#4c72b0;"/>
    <path clip-path="url(#p3f75983e23)" d="M 256.729681 252 
L 256.729681 241.128 
" style="fill:none;stroke:#4c72b0;"/>
    <path clip-path="url(#p3f75983e23)" d="M 294.50436 252 
L 294.50436 241.128 
" style="fill:none;stroke:#4c72b0;"/>
    <path clip-path="url(#p3f75983e23)" d="M 242.25893 252 
L 242.25893 241.128 
" style="fill:none;stroke:#4c72b0;"/>
    <path clip-path="url(#p3f75983e23)" d="M 265.581973 252 
L 265.581973 241.128 
" style="fill:none;stroke:#4c72b0;"/>
    <path clip-path="url(#p3f75983e23)" d="M 227.786528 252 
L 227.786528 241.128 
" style="fill:none;stroke:#4c72b0;"/>
    <path clip-path="url(#p3f75983e23)" d="M 203.651744 252 
L 203.651744 241.128 
" style="fill:none;stroke:#4c72b0;"/>
    <path clip-path="url(#p3f75983e23)" d="M 239.732439 252 
L 239.732439 241.128 
" style="fill:none;stroke:#4c72b0;"/>
    <path clip-path="url(#p3f75983e23)" d="M 211.68135 252 
L 211.68135 241.128 
" style="fill:none;stroke:#4c72b0;"/>
    <path clip-path="url(#p3f75983e23)" d="M 172.823669 252 
L 172.823669 241.128 
" style="fill:none;stroke:#4c72b0;"/>
    <path clip-path="url(#p3f75983e23)" d="M 307.711107 252 
L 307.711107 241.128 
" style="fill:none;stroke:#4c72b0;"/>
    <path clip-path="url(#p3f75983e23)" d="M 249.283939 252 
L 249.283939 241.128 
" style="fill:none;stroke:#4c72b0;"/>
    <path clip-path="url(#p3f75983e23)" d="M 289.470726 252 
L 289.470726 241.128 
" style="fill:none;stroke:#4c72b0;"/>
    <path clip-path="url(#p3f75983e23)" d="M 234.354594 252 
L 234.354594 241.128 
" style="fill:none;stroke:#4c72b0;"/>
    <path clip-path="url(#p3f75983e23)" d="M 189.48887 252 
L 189.48887 241.128 
" style="fill:none;stroke:#4c72b0;"/>
    <path clip-path="url(#p3f75983e23)" d="M 274.40364 252 
L 274.40364 241.128 
" style="fill:none;stroke:#4c72b0;"/>
    <path clip-path="url(#p3f75983e23)" d="M 231.539743 252 
L 231.539743 241.128 
" style="fill:none;stroke:#4c72b0;"/>
    <path clip-path="url(#p3f75983e23)" d="M 192.530089 252 
L 192.530089 241.128 
" style="fill:none;stroke:#4c72b0;"/>
    <path clip-path="url(#p3f75983e23)" d="M 184.939284 252 
L 184.939284 241.128 
" style="fill:none;stroke:#4c72b0;"/>
    <path clip-path="url(#p3f75983e23)" d="M 215.804679 252 
L 215.804679 241.128 
" style="fill:none;stroke:#4c72b0;"/>
    <path clip-path="url(#p3f75983e23)" d="M 256.958734 252 
L 256.958734 241.128 
" style="fill:none;stroke:#4c72b0;"/>
    <path clip-path="url(#p3f75983e23)" d="M 288.26486 252 
L 288.26486 241.128 
" style="fill:none;stroke:#4c72b0;"/>
    <path clip-path="url(#p3f75983e23)" d="M 214.625384 252 
L 214.625384 241.128 
" style="fill:none;stroke:#4c72b0;"/>
    <path clip-path="url(#p3f75983e23)" d="M 284.618101 252 
L 284.618101 241.128 
" style="fill:none;stroke:#4c72b0;"/>
    <path clip-path="url(#p3f75983e23)" d="M 283.226783 252 
L 283.226783 241.128 
" style="fill:none;stroke:#4c72b0;"/>
    <path clip-path="url(#p3f75983e23)" d="M 158.19324 252 
L 158.19324 241.128 
" style="fill:none;stroke:#4c72b0;"/>
    <path clip-path="url(#p3f75983e23)" d="M 183.79969 252 
L 183.79969 241.128 
" style="fill:none;stroke:#4c72b0;"/>
    <path clip-path="url(#p3f75983e23)" d="M 303.728114 252 
L 303.728114 241.128 
" style="fill:none;stroke:#4c72b0;"/>
    <path clip-path="url(#p3f75983e23)" d="M 294.056525 252 
L 294.056525 241.128 
" style="fill:none;stroke:#4c72b0;"/>
    <path clip-path="url(#p3f75983e23)" d="M 179.389883 252 
L 179.389883 241.128 
" style="fill:none;stroke:#4c72b0;"/>
    <path clip-path="url(#p3f75983e23)" d="M 252.526522 252 
L 252.526522 241.128 
" style="fill:none;stroke:#4c72b0;"/>
    <path clip-path="url(#p3f75983e23)" d="M 305.188076 252 
L 305.188076 241.128 
" style="fill:none;stroke:#4c72b0;"/>
    <path clip-path="url(#p3f75983e23)" d="M 282.990911 252 
L 282.990911 241.128 
" style="fill:none;stroke:#4c72b0;"/>
    <path clip-path="url(#p3f75983e23)" d="M 242.01523 252 
L 242.01523 241.128 
" style="fill:none;stroke:#4c72b0;"/>
    <path clip-path="url(#p3f75983e23)" d="M 189.73572 252 
L 189.73572 241.128 
" style="fill:none;stroke:#4c72b0;"/>
    <path clip-path="url(#p3f75983e23)" d="M 218.705875 252 
L 218.705875 241.128 
" style="fill:none;stroke:#4c72b0;"/>
    <path clip-path="url(#p3f75983e23)" d="M 304.424875 252 
L 304.424875 241.128 
" style="fill:none;stroke:#4c72b0;"/>
    <path clip-path="url(#p3f75983e23)" d="M 256.273186 252 
L 256.273186 241.128 
" style="fill:none;stroke:#4c72b0;"/>
    <path clip-path="url(#p3f75983e23)" d="M 128.953606 252 
L 128.953606 241.128 
" style="fill:none;stroke:#4c72b0;"/>
    <path clip-path="url(#p3f75983e23)" d="M 240.728806 252 
L 240.728806 241.128 
" style="fill:none;stroke:#4c72b0;"/>
    <path clip-path="url(#p3f75983e23)" d="M 196.692509 252 
L 196.692509 241.128 
" style="fill:none;stroke:#4c72b0;"/>
    <path clip-path="url(#p3f75983e23)" d="M 237.400687 252 
L 237.400687 241.128 
" style="fill:none;stroke:#4c72b0;"/>
    <path clip-path="url(#p3f75983e23)" d="M 222.699444 252 
L 222.699444 241.128 
" style="fill:none;stroke:#4c72b0;"/>
    <path clip-path="url(#p3f75983e23)" d="M 247.779196 252 
L 247.779196 241.128 
" style="fill:none;stroke:#4c72b0;"/>
    <path clip-path="url(#p3f75983e23)" d="M 270.619704 252 
L 270.619704 241.128 
" style="fill:none;stroke:#4c72b0;"/>
    <path clip-path="url(#p3f75983e23)" d="M 239.33262 252 
L 239.33262 241.128 
" style="fill:none;stroke:#4c72b0;"/>
    <path clip-path="url(#p3f75983e23)" d="M 230.825317 252 
L 230.825317 241.128 
" style="fill:none;stroke:#4c72b0;"/>
    <path clip-path="url(#p3f75983e23)" d="M 217.974672 252 
L 217.974672 241.128 
" style="fill:none;stroke:#4c72b0;"/>
    <path clip-path="url(#p3f75983e23)" d="M 266.126219 252 
L 266.126219 241.128 
" style="fill:none;stroke:#4c72b0;"/>
    <path clip-path="url(#p3f75983e23)" d="M 288.365336 252 
L 288.365336 241.128 
" style="fill:none;stroke:#4c72b0;"/>
    <path clip-path="url(#p3f75983e23)" d="M 163.068059 252 
L 163.068059 241.128 
" style="fill:none;stroke:#4c72b0;"/>
    <path clip-path="url(#p3f75983e23)" d="M 230.630094 252 
L 230.630094 241.128 
" style="fill:none;stroke:#4c72b0;"/>
    <path clip-path="url(#p3f75983e23)" d="M 296.110776 252 
L 296.110776 241.128 
" style="fill:none;stroke:#4c72b0;"/>
    <path clip-path="url(#p3f75983e23)" d="M 226.288237 252 
L 226.288237 241.128 
" style="fill:none;stroke:#4c72b0;"/>
    <path clip-path="url(#p3f75983e23)" d="M 278.58387 252 
L 278.58387 241.128 
" style="fill:none;stroke:#4c72b0;"/>
    <path clip-path="url(#p3f75983e23)" d="M 223.746138 252 
L 223.746138 241.128 
" style="fill:none;stroke:#4c72b0;"/>
    <path clip-path="url(#p3f75983e23)" d="M 217.977488 252 
L 217.977488 241.128 
" style="fill:none;stroke:#4c72b0;"/>
    <path clip-path="url(#p3f75983e23)" d="M 313.846394 252 
L 313.846394 241.128 
" style="fill:none;stroke:#4c72b0;"/>
    <path clip-path="url(#p3f75983e23)" d="M 269.482581 252 
L 269.482581 241.128 
" style="fill:none;stroke:#4c72b0;"/>
    <path clip-path="url(#p3f75983e23)" d="M 307.137663 252 
L 307.137663 241.128 
" style="fill:none;stroke:#4c72b0;"/>
    <path clip-path="url(#p3f75983e23)" d="M 182.2547 252 
L 182.2547 241.128 
" style="fill:none;stroke:#4c72b0;"/>
    <path clip-path="url(#p3f75983e23)" d="M 230.523199 252 
L 230.523199 241.128 
" style="fill:none;stroke:#4c72b0;"/>
    <path clip-path="url(#p3f75983e23)" d="M 303.629769 252 
L 303.629769 241.128 
" style="fill:none;stroke:#4c72b0;"/>
    <path clip-path="url(#p3f75983e23)" d="M 189.162201 252 
L 189.162201 241.128 
" style="fill:none;stroke:#4c72b0;"/>
    <path clip-path="url(#p3f75983e23)" d="M 173.105834 252 
L 173.105834 241.128 
" style="fill:none;stroke:#4c72b0;"/>
    <path clip-path="url(#p3f75983e23)" d="M 294.698552 252 
L 294.698552 241.128 
" style="fill:none;stroke:#4c72b0;"/>
    <path clip-path="url(#p3f75983e23)" d="M 287.867648 252 
L 287.867648 241.128 
" style="fill:none;stroke:#4c72b0;"/>
   </g>
   <g id="line2d_15">
    <path clip-path="url(#p3f75983e23)" d="M 69.218182 251.710696 
L 76.407874 251.657955 
L 81.201002 251.433872 
L 85.99413 251.018324 
L 90.787258 250.343686 
L 95.580387 249.323973 
L 97.976951 248.655426 
L 100.373515 247.865388 
L 102.770079 246.942491 
L 105.166643 245.875847 
L 107.563207 244.655027 
L 109.959771 243.26988 
L 112.356335 241.710191 
L 114.752899 239.965203 
L 117.149463 238.023049 
L 119.546027 235.870169 
L 121.942591 233.490795 
L 124.339155 230.866622 
L 126.735719 227.976735 
L 129.132283 224.797912 
L 131.528848 221.305332 
L 133.925412 217.473725 
L 136.321976 213.278935 
L 138.71854 208.699845 
L 141.115104 203.720552 
L 143.511668 198.332658 
L 145.908232 192.537532 
L 148.304796 186.348378 
L 150.70136 179.791926 
L 155.494488 165.758125 
L 167.477309 128.899597 
L 169.873873 122.024067 
L 172.270437 115.562424 
L 174.667001 109.606717 
L 177.063565 104.231457 
L 179.460129 99.488307 
L 181.856693 95.401753 
L 184.253257 91.966228 
L 186.649821 89.145115 
L 189.046385 86.871919 
L 191.442949 85.05372 
L 193.839513 83.576829 
L 203.42577 78.536055 
L 205.822334 76.916742 
L 208.218898 74.996098 
L 210.615462 72.749521 
L 213.012026 70.187957 
L 215.40859 67.356459 
L 227.39141 52.395028 
L 229.787974 50.010744 
L 232.184538 48.047579 
L 234.581102 46.554385 
L 236.977666 45.548867 
L 239.37423 45.016868 
L 241.770795 44.914286 
L 244.167359 45.171374 
L 246.563923 45.699022 
L 256.150179 48.502636 
L 258.546743 48.932648 
L 260.943307 49.141545 
L 263.339871 49.120436 
L 265.736435 48.891829 
L 275.322691 47.379951 
L 277.719256 47.424142 
L 280.11582 47.913482 
L 282.512384 48.989863 
L 284.908948 50.785199 
L 287.305512 53.414292 
L 289.702076 56.968521 
L 292.09864 61.51065 
L 294.495204 67.071013 
L 296.891768 73.645254 
L 299.288332 81.193748 
L 301.684896 89.642707 
L 304.08146 98.886945 
L 306.478024 108.794133 
L 311.271152 129.966559 
L 318.460845 162.509624 
L 323.253973 182.777606 
L 325.650537 192.070654 
L 328.047101 200.673634 
L 330.443665 208.523108 
L 332.840229 215.582711 
L 335.236793 221.841679 
L 337.633357 227.312253 
L 340.029921 232.026244 
L 342.426485 236.031052 
L 344.823049 239.38548 
L 347.219613 242.155614 
L 349.616178 244.411017 
L 352.012742 246.221414 
L 354.409306 247.653992 
L 356.80587 248.771342 
L 359.202434 249.630059 
L 361.598998 250.279915 
L 363.995562 250.763546 
L 368.78869 251.367716 
L 373.581818 251.650055 
L 373.581818 251.650055 
" style="fill:none;stroke:#4c72b0;stroke-linecap:round;stroke-width:1.5;"/>
   </g>
   <g id="patch_3">
    <path d="M 54 252 
L 54 34.56 
" style="fill:none;stroke:#ffffff;stroke-linecap:square;stroke-linejoin:miter;stroke-width:1.25;"/>
   </g>
   <g id="patch_4">
    <path d="M 388.8 252 
L 388.8 34.56 
" style="fill:none;stroke:#ffffff;stroke-linecap:square;stroke-linejoin:miter;stroke-width:1.25;"/>
   </g>
   <g id="patch_5">
    <path d="M 54 252 
L 388.8 252 
" style="fill:none;stroke:#ffffff;stroke-linecap:square;stroke-linejoin:miter;stroke-width:1.25;"/>
   </g>
   <g id="patch_6">
    <path d="M 54 34.56 
L 388.8 34.56 
" style="fill:none;stroke:#ffffff;stroke-linecap:square;stroke-linejoin:miter;stroke-width:1.25;"/>
   </g>
   <g id="text_17">
    <!-- Phase 4 Growth Rate Distribution -->
    <defs>
     <path d="M 7.71875 0 
L 7.71875 71.578125 
L 34.71875 71.578125 
Q 41.84375 71.578125 45.609375 70.90625 
Q 50.875 70.015625 54.4375 67.546875 
Q 58.015625 65.09375 60.1875 60.640625 
Q 62.359375 56.203125 62.359375 50.875 
Q 62.359375 41.75 56.546875 35.421875 
Q 50.734375 29.109375 35.546875 29.109375 
L 17.1875 29.109375 
L 17.1875 0 
z
M 17.1875 37.546875 
L 35.6875 37.546875 
Q 44.875 37.546875 48.734375 40.96875 
Q 52.59375 44.390625 52.59375 50.59375 
Q 52.59375 55.078125 50.3125 58.265625 
Q 48.046875 61.46875 44.34375 62.5 
Q 41.9375 63.140625 35.5 63.140625 
L 17.1875 63.140625 
z
" id="ArialMT-80"/>
     <path d="M 14.703125 0 
L 6.546875 0 
L 6.546875 71.578125 
L 15.328125 71.578125 
L 15.328125 46.046875 
Q 20.90625 53.03125 29.546875 53.03125 
Q 34.328125 53.03125 38.59375 51.09375 
Q 42.875 49.171875 45.625 45.671875 
Q 48.390625 42.1875 49.953125 37.25 
Q 51.515625 32.328125 51.515625 26.703125 
Q 51.515625 13.375 44.921875 6.09375 
Q 38.328125 -1.171875 29.109375 -1.171875 
Q 19.921875 -1.171875 14.703125 6.5 
z
M 14.59375 26.3125 
Q 14.59375 17 17.140625 12.84375 
Q 21.296875 6.0625 28.375 6.0625 
Q 34.125 6.0625 38.328125 11.0625 
Q 42.53125 16.0625 42.53125 25.984375 
Q 42.53125 36.140625 38.5 40.96875 
Q 34.46875 45.796875 28.765625 45.796875 
Q 23 45.796875 18.796875 40.796875 
Q 14.59375 35.796875 14.59375 26.3125 
z
" id="ArialMT-98"/>
     <path d="M 40.578125 0 
L 40.578125 7.625 
Q 34.515625 -1.171875 24.125 -1.171875 
Q 19.53125 -1.171875 15.546875 0.578125 
Q 11.578125 2.34375 9.640625 5 
Q 7.71875 7.671875 6.9375 11.53125 
Q 6.390625 14.109375 6.390625 19.734375 
L 6.390625 51.859375 
L 15.1875 51.859375 
L 15.1875 23.09375 
Q 15.1875 16.21875 15.71875 13.8125 
Q 16.546875 10.359375 19.234375 8.375 
Q 21.921875 6.390625 25.875 6.390625 
Q 29.828125 6.390625 33.296875 8.421875 
Q 36.765625 10.453125 38.203125 13.9375 
Q 39.65625 17.4375 39.65625 24.078125 
L 39.65625 51.859375 
L 48.4375 51.859375 
L 48.4375 0 
z
" id="ArialMT-117"/>
    </defs>
    <g style="fill:#262626;" transform="translate(132.362813 28.56)scale(0.12 -0.12)">
     <use xlink:href="#ArialMT-80"/>
     <use x="66.699219" xlink:href="#ArialMT-104"/>
     <use x="122.314453" xlink:href="#ArialMT-97"/>
     <use x="177.929688" xlink:href="#ArialMT-115"/>
     <use x="227.929688" xlink:href="#ArialMT-101"/>
     <use x="283.544922" xlink:href="#ArialMT-32"/>
     <use x="311.328125" xlink:href="#ArialMT-52"/>
     <use x="366.943359" xlink:href="#ArialMT-32"/>
     <use x="394.726562" xlink:href="#ArialMT-71"/>
     <use x="472.509766" xlink:href="#ArialMT-114"/>
     <use x="505.810547" xlink:href="#ArialMT-111"/>
     <use x="561.425781" xlink:href="#ArialMT-119"/>
     <use x="633.642578" xlink:href="#ArialMT-116"/>
     <use x="661.425781" xlink:href="#ArialMT-104"/>
     <use x="717.041016" xlink:href="#ArialMT-32"/>
     <use x="744.824219" xlink:href="#ArialMT-82"/>
     <use x="817.041016" xlink:href="#ArialMT-97"/>
     <use x="872.65625" xlink:href="#ArialMT-116"/>
     <use x="900.439453" xlink:href="#ArialMT-101"/>
     <use x="956.054688" xlink:href="#ArialMT-32"/>
     <use x="983.837891" xlink:href="#ArialMT-68"/>
     <use x="1056.054688" xlink:href="#ArialMT-105"/>
     <use x="1078.271484" xlink:href="#ArialMT-115"/>
     <use x="1128.271484" xlink:href="#ArialMT-116"/>
     <use x="1156.054688" xlink:href="#ArialMT-114"/>
     <use x="1189.355469" xlink:href="#ArialMT-105"/>
     <use x="1211.572266" xlink:href="#ArialMT-98"/>
     <use x="1267.1875" xlink:href="#ArialMT-117"/>
     <use x="1322.802734" xlink:href="#ArialMT-116"/>
     <use x="1350.585938" xlink:href="#ArialMT-105"/>
     <use x="1372.802734" xlink:href="#ArialMT-111"/>
     <use x="1428.417969" xlink:href="#ArialMT-110"/>
    </g>
   </g>
  </g>
 </g>
 <defs>
  <clipPath id="p3f75983e23">
   <rect height="217.44" width="334.8" x="54" y="34.56"/>
  </clipPath>
 </defs>
</svg>
