<?xml version="1.0" encoding="utf-8" standalone="no"?>
<!DOCTYPE svg PUBLIC "-//W3C//DTD SVG 1.1//EN"
  "http://www.w3.org/Graphics/SVG/1.1/DTD/svg11.dtd">
<!-- Created with matplotlib (https://matplotlib.org/) -->
<svg height="288pt" version="1.1" viewBox="0 0 432 288" width="432pt" xmlns="http://www.w3.org/2000/svg" xmlns:xlink="http://www.w3.org/1999/xlink">
 <defs>
  <style type="text/css">
*{stroke-linecap:butt;stroke-linejoin:round;}
  </style>
 </defs>
 <g id="figure_1">
  <g id="patch_1">
   <path d="M 0 288 
L 432 288 
L 432 0 
L 0 0 
z
" style="fill:#ffffff;"/>
  </g>
  <g id="axes_1">
   <g id="patch_2">
    <path d="M 54 252 
L 388.8 252 
L 388.8 34.56 
L 54 34.56 
z
" style="fill:#eaeaf2;"/>
   </g>
   <g id="matplotlib.axis_1">
    <g id="xtick_1">
     <g id="line2d_1">
      <path clip-path="url(#p4e360446dd)" d="M 90.462087 252 
L 90.462087 34.56 
" style="fill:none;stroke:#ffffff;stroke-linecap:round;"/>
     </g>
     <g id="text_1">
      <!-- −0.35 -->
      <defs>
       <path d="M 52.828125 31.203125 
L 5.5625 31.203125 
L 5.5625 39.40625 
L 52.828125 39.40625 
z
" id="ArialMT-8722"/>
       <path d="M 4.15625 35.296875 
Q 4.15625 48 6.765625 55.734375 
Q 9.375 63.484375 14.515625 67.671875 
Q 19.671875 71.875 27.484375 71.875 
Q 33.25 71.875 37.59375 69.546875 
Q 41.9375 67.234375 44.765625 62.859375 
Q 47.609375 58.5 49.21875 52.21875 
Q 50.828125 45.953125 50.828125 35.296875 
Q 50.828125 22.703125 48.234375 14.96875 
Q 45.65625 7.234375 40.5 3 
Q 35.359375 -1.21875 27.484375 -1.21875 
Q 17.140625 -1.21875 11.234375 6.203125 
Q 4.15625 15.140625 4.15625 35.296875 
z
M 13.1875 35.296875 
Q 13.1875 17.671875 17.3125 11.828125 
Q 21.4375 6 27.484375 6 
Q 33.546875 6 37.671875 11.859375 
Q 41.796875 17.71875 41.796875 35.296875 
Q 41.796875 52.984375 37.671875 58.78125 
Q 33.546875 64.59375 27.390625 64.59375 
Q 21.34375 64.59375 17.71875 59.46875 
Q 13.1875 52.9375 13.1875 35.296875 
z
" id="ArialMT-48"/>
       <path d="M 9.078125 0 
L 9.078125 10.015625 
L 19.09375 10.015625 
L 19.09375 0 
z
" id="ArialMT-46"/>
       <path d="M 4.203125 18.890625 
L 12.984375 20.0625 
Q 14.5 12.59375 18.140625 9.296875 
Q 21.78125 6 27 6 
Q 33.203125 6 37.46875 10.296875 
Q 41.75 14.59375 41.75 20.953125 
Q 41.75 27 37.796875 30.921875 
Q 33.84375 34.859375 27.734375 34.859375 
Q 25.25 34.859375 21.53125 33.890625 
L 22.515625 41.609375 
Q 23.390625 41.5 23.921875 41.5 
Q 29.546875 41.5 34.03125 44.421875 
Q 38.53125 47.359375 38.53125 53.46875 
Q 38.53125 58.296875 35.25 61.46875 
Q 31.984375 64.65625 26.8125 64.65625 
Q 21.6875 64.65625 18.265625 61.421875 
Q 14.84375 58.203125 13.875 51.765625 
L 5.078125 53.328125 
Q 6.6875 62.15625 12.390625 67.015625 
Q 18.109375 71.875 26.609375 71.875 
Q 32.46875 71.875 37.390625 69.359375 
Q 42.328125 66.84375 44.9375 62.5 
Q 47.5625 58.15625 47.5625 53.265625 
Q 47.5625 48.640625 45.0625 44.828125 
Q 42.578125 41.015625 37.703125 38.765625 
Q 44.046875 37.3125 47.5625 32.6875 
Q 51.078125 28.078125 51.078125 21.140625 
Q 51.078125 11.765625 44.234375 5.25 
Q 37.40625 -1.265625 26.953125 -1.265625 
Q 17.53125 -1.265625 11.296875 4.34375 
Q 5.078125 9.96875 4.203125 18.890625 
z
" id="ArialMT-51"/>
       <path d="M 4.15625 18.75 
L 13.375 19.53125 
Q 14.40625 12.796875 18.140625 9.390625 
Q 21.875 6 27.15625 6 
Q 33.5 6 37.890625 10.78125 
Q 42.28125 15.578125 42.28125 23.484375 
Q 42.28125 31 38.0625 35.34375 
Q 33.84375 39.703125 27 39.703125 
Q 22.75 39.703125 19.328125 37.765625 
Q 15.921875 35.84375 13.96875 32.765625 
L 5.71875 33.84375 
L 12.640625 70.609375 
L 48.25 70.609375 
L 48.25 62.203125 
L 19.671875 62.203125 
L 15.828125 42.96875 
Q 22.265625 47.46875 29.34375 47.46875 
Q 38.71875 47.46875 45.15625 40.96875 
Q 51.609375 34.46875 51.609375 24.265625 
Q 51.609375 14.546875 45.953125 7.46875 
Q 39.0625 -1.21875 27.15625 -1.21875 
Q 17.390625 -1.21875 11.203125 4.25 
Q 5.03125 9.71875 4.15625 18.75 
z
" id="ArialMT-53"/>
      </defs>
      <g style="fill:#262626;" transform="translate(76.546228 269.373594)scale(0.11 -0.11)">
       <use xlink:href="#ArialMT-8722"/>
       <use x="58.398438" xlink:href="#ArialMT-48"/>
       <use x="114.013672" xlink:href="#ArialMT-46"/>
       <use x="141.796875" xlink:href="#ArialMT-51"/>
       <use x="197.412109" xlink:href="#ArialMT-53"/>
      </g>
     </g>
    </g>
    <g id="xtick_2">
     <g id="line2d_2">
      <path clip-path="url(#p4e360446dd)" d="M 142.4351 252 
L 142.4351 34.56 
" style="fill:none;stroke:#ffffff;stroke-linecap:round;"/>
     </g>
     <g id="text_2">
      <!-- −0.30 -->
      <g style="fill:#262626;" transform="translate(128.519241 269.373594)scale(0.11 -0.11)">
       <use xlink:href="#ArialMT-8722"/>
       <use x="58.398438" xlink:href="#ArialMT-48"/>
       <use x="114.013672" xlink:href="#ArialMT-46"/>
       <use x="141.796875" xlink:href="#ArialMT-51"/>
       <use x="197.412109" xlink:href="#ArialMT-48"/>
      </g>
     </g>
    </g>
    <g id="xtick_3">
     <g id="line2d_3">
      <path clip-path="url(#p4e360446dd)" d="M 194.408113 252 
L 194.408113 34.56 
" style="fill:none;stroke:#ffffff;stroke-linecap:round;"/>
     </g>
     <g id="text_3">
      <!-- −0.25 -->
      <defs>
       <path d="M 50.34375 8.453125 
L 50.34375 0 
L 3.03125 0 
Q 2.9375 3.171875 4.046875 6.109375 
Q 5.859375 10.9375 9.828125 15.625 
Q 13.8125 20.3125 21.34375 26.46875 
Q 33.015625 36.03125 37.109375 41.625 
Q 41.21875 47.21875 41.21875 52.203125 
Q 41.21875 57.421875 37.46875 61 
Q 33.734375 64.59375 27.734375 64.59375 
Q 21.390625 64.59375 17.578125 60.78125 
Q 13.765625 56.984375 13.71875 50.25 
L 4.6875 51.171875 
Q 5.609375 61.28125 11.65625 66.578125 
Q 17.71875 71.875 27.9375 71.875 
Q 38.234375 71.875 44.234375 66.15625 
Q 50.25 60.453125 50.25 52 
Q 50.25 47.703125 48.484375 43.546875 
Q 46.734375 39.40625 42.65625 34.8125 
Q 38.578125 30.21875 29.109375 22.21875 
Q 21.1875 15.578125 18.9375 13.203125 
Q 16.703125 10.84375 15.234375 8.453125 
z
" id="ArialMT-50"/>
      </defs>
      <g style="fill:#262626;" transform="translate(180.492254 269.373594)scale(0.11 -0.11)">
       <use xlink:href="#ArialMT-8722"/>
       <use x="58.398438" xlink:href="#ArialMT-48"/>
       <use x="114.013672" xlink:href="#ArialMT-46"/>
       <use x="141.796875" xlink:href="#ArialMT-50"/>
       <use x="197.412109" xlink:href="#ArialMT-53"/>
      </g>
     </g>
    </g>
    <g id="xtick_4">
     <g id="line2d_4">
      <path clip-path="url(#p4e360446dd)" d="M 246.381126 252 
L 246.381126 34.56 
" style="fill:none;stroke:#ffffff;stroke-linecap:round;"/>
     </g>
     <g id="text_4">
      <!-- −0.20 -->
      <g style="fill:#262626;" transform="translate(232.465267 269.373594)scale(0.11 -0.11)">
       <use xlink:href="#ArialMT-8722"/>
       <use x="58.398438" xlink:href="#ArialMT-48"/>
       <use x="114.013672" xlink:href="#ArialMT-46"/>
       <use x="141.796875" xlink:href="#ArialMT-50"/>
       <use x="197.412109" xlink:href="#ArialMT-48"/>
      </g>
     </g>
    </g>
    <g id="xtick_5">
     <g id="line2d_5">
      <path clip-path="url(#p4e360446dd)" d="M 298.354139 252 
L 298.354139 34.56 
" style="fill:none;stroke:#ffffff;stroke-linecap:round;"/>
     </g>
     <g id="text_5">
      <!-- −0.15 -->
      <defs>
       <path d="M 37.25 0 
L 28.46875 0 
L 28.46875 56 
Q 25.296875 52.984375 20.140625 49.953125 
Q 14.984375 46.921875 10.890625 45.40625 
L 10.890625 53.90625 
Q 18.265625 57.375 23.78125 62.296875 
Q 29.296875 67.234375 31.59375 71.875 
L 37.25 71.875 
z
" id="ArialMT-49"/>
      </defs>
      <g style="fill:#262626;" transform="translate(284.438279 269.373594)scale(0.11 -0.11)">
       <use xlink:href="#ArialMT-8722"/>
       <use x="58.398438" xlink:href="#ArialMT-48"/>
       <use x="114.013672" xlink:href="#ArialMT-46"/>
       <use x="141.796875" xlink:href="#ArialMT-49"/>
       <use x="197.412109" xlink:href="#ArialMT-53"/>
      </g>
     </g>
    </g>
    <g id="xtick_6">
     <g id="line2d_6">
      <path clip-path="url(#p4e360446dd)" d="M 350.327152 252 
L 350.327152 34.56 
" style="fill:none;stroke:#ffffff;stroke-linecap:round;"/>
     </g>
     <g id="text_6">
      <!-- −0.10 -->
      <g style="fill:#262626;" transform="translate(336.411292 269.373594)scale(0.11 -0.11)">
       <use xlink:href="#ArialMT-8722"/>
       <use x="58.398438" xlink:href="#ArialMT-48"/>
       <use x="114.013672" xlink:href="#ArialMT-46"/>
       <use x="141.796875" xlink:href="#ArialMT-49"/>
       <use x="197.412109" xlink:href="#ArialMT-48"/>
      </g>
     </g>
    </g>
    <g id="text_7">
     <!-- Growth Rate -->
     <defs>
      <path d="M 41.21875 28.078125 
L 41.21875 36.46875 
L 71.53125 36.53125 
L 71.53125 9.96875 
Q 64.546875 4.390625 57.125 1.578125 
Q 49.703125 -1.21875 41.890625 -1.21875 
Q 31.34375 -1.21875 22.71875 3.296875 
Q 14.109375 7.8125 9.71875 16.359375 
Q 5.328125 24.90625 5.328125 35.453125 
Q 5.328125 45.90625 9.6875 54.953125 
Q 14.0625 64.015625 22.265625 68.40625 
Q 30.46875 72.796875 41.15625 72.796875 
Q 48.921875 72.796875 55.1875 70.28125 
Q 61.46875 67.78125 65.03125 63.28125 
Q 68.609375 58.796875 70.453125 51.5625 
L 61.921875 49.21875 
Q 60.296875 54.6875 57.90625 57.8125 
Q 55.515625 60.9375 51.0625 62.8125 
Q 46.625 64.703125 41.21875 64.703125 
Q 34.71875 64.703125 29.984375 62.71875 
Q 25.25 60.75 22.34375 57.515625 
Q 19.4375 54.296875 17.828125 50.4375 
Q 15.09375 43.796875 15.09375 36.03125 
Q 15.09375 26.46875 18.390625 20.015625 
Q 21.6875 13.578125 27.984375 10.453125 
Q 34.28125 7.328125 41.359375 7.328125 
Q 47.515625 7.328125 53.375 9.6875 
Q 59.234375 12.0625 62.25 14.75 
L 62.25 28.078125 
z
" id="ArialMT-71"/>
      <path d="M 6.5 0 
L 6.5 51.859375 
L 14.40625 51.859375 
L 14.40625 44 
Q 17.4375 49.515625 20 51.265625 
Q 22.5625 53.03125 25.640625 53.03125 
Q 30.078125 53.03125 34.671875 50.203125 
L 31.640625 42.046875 
Q 28.421875 43.953125 25.203125 43.953125 
Q 22.3125 43.953125 20.015625 42.21875 
Q 17.71875 40.484375 16.75 37.40625 
Q 15.28125 32.71875 15.28125 27.15625 
L 15.28125 0 
z
" id="ArialMT-114"/>
      <path d="M 3.328125 25.921875 
Q 3.328125 40.328125 11.328125 47.265625 
Q 18.015625 53.03125 27.640625 53.03125 
Q 38.328125 53.03125 45.109375 46.015625 
Q 51.90625 39.015625 51.90625 26.65625 
Q 51.90625 16.65625 48.90625 10.90625 
Q 45.90625 5.171875 40.15625 2 
Q 34.421875 -1.171875 27.640625 -1.171875 
Q 16.75 -1.171875 10.03125 5.8125 
Q 3.328125 12.796875 3.328125 25.921875 
z
M 12.359375 25.921875 
Q 12.359375 15.96875 16.703125 11.015625 
Q 21.046875 6.0625 27.640625 6.0625 
Q 34.1875 6.0625 38.53125 11.03125 
Q 42.875 16.015625 42.875 26.21875 
Q 42.875 35.84375 38.5 40.796875 
Q 34.125 45.75 27.640625 45.75 
Q 21.046875 45.75 16.703125 40.8125 
Q 12.359375 35.890625 12.359375 25.921875 
z
" id="ArialMT-111"/>
      <path d="M 16.15625 0 
L 0.296875 51.859375 
L 9.375 51.859375 
L 17.625 21.921875 
L 20.703125 10.796875 
Q 20.90625 11.625 23.390625 21.484375 
L 31.640625 51.859375 
L 40.671875 51.859375 
L 48.4375 21.78125 
L 51.03125 11.859375 
L 54 21.875 
L 62.890625 51.859375 
L 71.4375 51.859375 
L 55.21875 0 
L 46.09375 0 
L 37.84375 31.0625 
L 35.84375 39.890625 
L 25.34375 0 
z
" id="ArialMT-119"/>
      <path d="M 25.78125 7.859375 
L 27.046875 0.09375 
Q 23.34375 -0.6875 20.40625 -0.6875 
Q 15.625 -0.6875 12.984375 0.828125 
Q 10.359375 2.34375 9.28125 4.8125 
Q 8.203125 7.28125 8.203125 15.1875 
L 8.203125 45.015625 
L 1.765625 45.015625 
L 1.765625 51.859375 
L 8.203125 51.859375 
L 8.203125 64.703125 
L 16.9375 69.96875 
L 16.9375 51.859375 
L 25.78125 51.859375 
L 25.78125 45.015625 
L 16.9375 45.015625 
L 16.9375 14.703125 
Q 16.9375 10.9375 17.40625 9.859375 
Q 17.875 8.796875 18.921875 8.15625 
Q 19.96875 7.515625 21.921875 7.515625 
Q 23.390625 7.515625 25.78125 7.859375 
z
" id="ArialMT-116"/>
      <path d="M 6.59375 0 
L 6.59375 71.578125 
L 15.375 71.578125 
L 15.375 45.90625 
Q 21.53125 53.03125 30.90625 53.03125 
Q 36.671875 53.03125 40.921875 50.75 
Q 45.171875 48.484375 47 44.484375 
Q 48.828125 40.484375 48.828125 32.859375 
L 48.828125 0 
L 40.046875 0 
L 40.046875 32.859375 
Q 40.046875 39.453125 37.1875 42.453125 
Q 34.328125 45.453125 29.109375 45.453125 
Q 25.203125 45.453125 21.75 43.421875 
Q 18.3125 41.40625 16.84375 37.9375 
Q 15.375 34.46875 15.375 28.375 
L 15.375 0 
z
" id="ArialMT-104"/>
      <path id="ArialMT-32"/>
      <path d="M 7.859375 0 
L 7.859375 71.578125 
L 39.59375 71.578125 
Q 49.171875 71.578125 54.140625 69.640625 
Q 59.125 67.71875 62.109375 62.828125 
Q 65.09375 57.953125 65.09375 52.046875 
Q 65.09375 44.4375 60.15625 39.203125 
Q 55.21875 33.984375 44.921875 32.5625 
Q 48.6875 30.765625 50.640625 29 
Q 54.78125 25.203125 58.5 19.484375 
L 70.953125 0 
L 59.03125 0 
L 49.5625 14.890625 
Q 45.40625 21.34375 42.71875 24.75 
Q 40.046875 28.171875 37.921875 29.53125 
Q 35.796875 30.90625 33.59375 31.453125 
Q 31.984375 31.78125 28.328125 31.78125 
L 17.328125 31.78125 
L 17.328125 0 
z
M 17.328125 39.984375 
L 37.703125 39.984375 
Q 44.1875 39.984375 47.84375 41.328125 
Q 51.515625 42.671875 53.421875 45.625 
Q 55.328125 48.578125 55.328125 52.046875 
Q 55.328125 57.125 51.640625 60.390625 
Q 47.953125 63.671875 39.984375 63.671875 
L 17.328125 63.671875 
z
" id="ArialMT-82"/>
      <path d="M 40.4375 6.390625 
Q 35.546875 2.25 31.03125 0.53125 
Q 26.515625 -1.171875 21.34375 -1.171875 
Q 12.796875 -1.171875 8.203125 3 
Q 3.609375 7.171875 3.609375 13.671875 
Q 3.609375 17.484375 5.34375 20.625 
Q 7.078125 23.78125 9.890625 25.6875 
Q 12.703125 27.59375 16.21875 28.5625 
Q 18.796875 29.25 24.03125 29.890625 
Q 34.671875 31.15625 39.703125 32.90625 
Q 39.75 34.71875 39.75 35.203125 
Q 39.75 40.578125 37.25 42.78125 
Q 33.890625 45.75 27.25 45.75 
Q 21.046875 45.75 18.09375 43.578125 
Q 15.140625 41.40625 13.71875 35.890625 
L 5.125 37.0625 
Q 6.296875 42.578125 8.984375 45.96875 
Q 11.671875 49.359375 16.75 51.1875 
Q 21.828125 53.03125 28.515625 53.03125 
Q 35.15625 53.03125 39.296875 51.46875 
Q 43.453125 49.90625 45.40625 47.53125 
Q 47.359375 45.171875 48.140625 41.546875 
Q 48.578125 39.3125 48.578125 33.453125 
L 48.578125 21.734375 
Q 48.578125 9.46875 49.140625 6.21875 
Q 49.703125 2.984375 51.375 0 
L 42.1875 0 
Q 40.828125 2.734375 40.4375 6.390625 
z
M 39.703125 26.03125 
Q 34.90625 24.078125 25.34375 22.703125 
Q 19.921875 21.921875 17.671875 20.9375 
Q 15.4375 19.96875 14.203125 18.09375 
Q 12.984375 16.21875 12.984375 13.921875 
Q 12.984375 10.40625 15.640625 8.0625 
Q 18.3125 5.71875 23.4375 5.71875 
Q 28.515625 5.71875 32.46875 7.9375 
Q 36.421875 10.15625 38.28125 14.015625 
Q 39.703125 17 39.703125 22.796875 
z
" id="ArialMT-97"/>
      <path d="M 42.09375 16.703125 
L 51.171875 15.578125 
Q 49.03125 7.625 43.21875 3.21875 
Q 37.40625 -1.171875 28.375 -1.171875 
Q 17 -1.171875 10.328125 5.828125 
Q 3.65625 12.84375 3.65625 25.484375 
Q 3.65625 38.578125 10.390625 45.796875 
Q 17.140625 53.03125 27.875 53.03125 
Q 38.28125 53.03125 44.875 45.953125 
Q 51.46875 38.875 51.46875 26.03125 
Q 51.46875 25.25 51.421875 23.6875 
L 12.75 23.6875 
Q 13.234375 15.140625 17.578125 10.59375 
Q 21.921875 6.0625 28.421875 6.0625 
Q 33.25 6.0625 36.671875 8.59375 
Q 40.09375 11.140625 42.09375 16.703125 
z
M 13.234375 30.90625 
L 42.1875 30.90625 
Q 41.609375 37.453125 38.875 40.71875 
Q 34.671875 45.796875 27.984375 45.796875 
Q 21.921875 45.796875 17.796875 41.75 
Q 13.671875 37.703125 13.234375 30.90625 
z
" id="ArialMT-101"/>
     </defs>
     <g style="fill:#262626;" transform="translate(187.722188 284.149219)scale(0.12 -0.12)">
      <use xlink:href="#ArialMT-71"/>
      <use x="77.783203" xlink:href="#ArialMT-114"/>
      <use x="111.083984" xlink:href="#ArialMT-111"/>
      <use x="166.699219" xlink:href="#ArialMT-119"/>
      <use x="238.916016" xlink:href="#ArialMT-116"/>
      <use x="266.699219" xlink:href="#ArialMT-104"/>
      <use x="322.314453" xlink:href="#ArialMT-32"/>
      <use x="350.097656" xlink:href="#ArialMT-82"/>
      <use x="422.314453" xlink:href="#ArialMT-97"/>
      <use x="477.929688" xlink:href="#ArialMT-116"/>
      <use x="505.712891" xlink:href="#ArialMT-101"/>
     </g>
    </g>
   </g>
   <g id="matplotlib.axis_2">
    <g id="ytick_1">
     <g id="line2d_7">
      <path clip-path="url(#p4e360446dd)" d="M 54 252 
L 388.8 252 
" style="fill:none;stroke:#ffffff;stroke-linecap:round;"/>
     </g>
     <g id="text_8">
      <!-- 0 -->
      <g style="fill:#262626;" transform="translate(38.382969 255.936797)scale(0.11 -0.11)">
       <use xlink:href="#ArialMT-48"/>
      </g>
     </g>
    </g>
    <g id="ytick_2">
     <g id="line2d_8">
      <path clip-path="url(#p4e360446dd)" d="M 54 226.090682 
L 388.8 226.090682 
" style="fill:none;stroke:#ffffff;stroke-linecap:round;"/>
     </g>
     <g id="text_9">
      <!-- 1 -->
      <g style="fill:#262626;" transform="translate(38.382969 230.027479)scale(0.11 -0.11)">
       <use xlink:href="#ArialMT-49"/>
      </g>
     </g>
    </g>
    <g id="ytick_3">
     <g id="line2d_9">
      <path clip-path="url(#p4e360446dd)" d="M 54 200.181364 
L 388.8 200.181364 
" style="fill:none;stroke:#ffffff;stroke-linecap:round;"/>
     </g>
     <g id="text_10">
      <!-- 2 -->
      <g style="fill:#262626;" transform="translate(38.382969 204.11816)scale(0.11 -0.11)">
       <use xlink:href="#ArialMT-50"/>
      </g>
     </g>
    </g>
    <g id="ytick_4">
     <g id="line2d_10">
      <path clip-path="url(#p4e360446dd)" d="M 54 174.272045 
L 388.8 174.272045 
" style="fill:none;stroke:#ffffff;stroke-linecap:round;"/>
     </g>
     <g id="text_11">
      <!-- 3 -->
      <g style="fill:#262626;" transform="translate(38.382969 178.208842)scale(0.11 -0.11)">
       <use xlink:href="#ArialMT-51"/>
      </g>
     </g>
    </g>
    <g id="ytick_5">
     <g id="line2d_11">
      <path clip-path="url(#p4e360446dd)" d="M 54 148.362727 
L 388.8 148.362727 
" style="fill:none;stroke:#ffffff;stroke-linecap:round;"/>
     </g>
     <g id="text_12">
      <!-- 4 -->
      <defs>
       <path d="M 32.328125 0 
L 32.328125 17.140625 
L 1.265625 17.140625 
L 1.265625 25.203125 
L 33.9375 71.578125 
L 41.109375 71.578125 
L 41.109375 25.203125 
L 50.78125 25.203125 
L 50.78125 17.140625 
L 41.109375 17.140625 
L 41.109375 0 
z
M 32.328125 25.203125 
L 32.328125 57.46875 
L 9.90625 25.203125 
z
" id="ArialMT-52"/>
      </defs>
      <g style="fill:#262626;" transform="translate(38.382969 152.299524)scale(0.11 -0.11)">
       <use xlink:href="#ArialMT-52"/>
      </g>
     </g>
    </g>
    <g id="ytick_6">
     <g id="line2d_12">
      <path clip-path="url(#p4e360446dd)" d="M 54 122.453409 
L 388.8 122.453409 
" style="fill:none;stroke:#ffffff;stroke-linecap:round;"/>
     </g>
     <g id="text_13">
      <!-- 5 -->
      <g style="fill:#262626;" transform="translate(38.382969 126.390206)scale(0.11 -0.11)">
       <use xlink:href="#ArialMT-53"/>
      </g>
     </g>
    </g>
    <g id="ytick_7">
     <g id="line2d_13">
      <path clip-path="url(#p4e360446dd)" d="M 54 96.544091 
L 388.8 96.544091 
" style="fill:none;stroke:#ffffff;stroke-linecap:round;"/>
     </g>
     <g id="text_14">
      <!-- 6 -->
      <defs>
       <path d="M 49.75 54.046875 
L 41.015625 53.375 
Q 39.84375 58.546875 37.703125 60.890625 
Q 34.125 64.65625 28.90625 64.65625 
Q 24.703125 64.65625 21.53125 62.3125 
Q 17.390625 59.28125 14.984375 53.46875 
Q 12.59375 47.65625 12.5 36.921875 
Q 15.671875 41.75 20.265625 44.09375 
Q 24.859375 46.4375 29.890625 46.4375 
Q 38.671875 46.4375 44.84375 39.96875 
Q 51.03125 33.5 51.03125 23.25 
Q 51.03125 16.5 48.125 10.71875 
Q 45.21875 4.9375 40.140625 1.859375 
Q 35.0625 -1.21875 28.609375 -1.21875 
Q 17.625 -1.21875 10.6875 6.859375 
Q 3.765625 14.9375 3.765625 33.5 
Q 3.765625 54.25 11.421875 63.671875 
Q 18.109375 71.875 29.4375 71.875 
Q 37.890625 71.875 43.28125 67.140625 
Q 48.6875 62.40625 49.75 54.046875 
z
M 13.875 23.1875 
Q 13.875 18.65625 15.796875 14.5 
Q 17.71875 10.359375 21.1875 8.171875 
Q 24.65625 6 28.46875 6 
Q 34.03125 6 38.03125 10.484375 
Q 42.046875 14.984375 42.046875 22.703125 
Q 42.046875 30.125 38.078125 34.390625 
Q 34.125 38.671875 28.125 38.671875 
Q 22.171875 38.671875 18.015625 34.390625 
Q 13.875 30.125 13.875 23.1875 
z
" id="ArialMT-54"/>
      </defs>
      <g style="fill:#262626;" transform="translate(38.382969 100.480888)scale(0.11 -0.11)">
       <use xlink:href="#ArialMT-54"/>
      </g>
     </g>
    </g>
    <g id="ytick_8">
     <g id="line2d_14">
      <path clip-path="url(#p4e360446dd)" d="M 54 70.634773 
L 388.8 70.634773 
" style="fill:none;stroke:#ffffff;stroke-linecap:round;"/>
     </g>
     <g id="text_15">
      <!-- 7 -->
      <defs>
       <path d="M 4.734375 62.203125 
L 4.734375 70.65625 
L 51.078125 70.65625 
L 51.078125 63.8125 
Q 44.234375 56.546875 37.515625 44.484375 
Q 30.8125 32.421875 27.15625 19.671875 
Q 24.515625 10.6875 23.78125 0 
L 14.75 0 
Q 14.890625 8.453125 18.0625 20.40625 
Q 21.234375 32.375 27.171875 43.484375 
Q 33.109375 54.59375 39.796875 62.203125 
z
" id="ArialMT-55"/>
      </defs>
      <g style="fill:#262626;" transform="translate(38.382969 74.571569)scale(0.11 -0.11)">
       <use xlink:href="#ArialMT-55"/>
      </g>
     </g>
    </g>
    <g id="ytick_9">
     <g id="line2d_15">
      <path clip-path="url(#p4e360446dd)" d="M 54 44.725454 
L 388.8 44.725454 
" style="fill:none;stroke:#ffffff;stroke-linecap:round;"/>
     </g>
     <g id="text_16">
      <!-- 8 -->
      <defs>
       <path d="M 17.671875 38.8125 
Q 12.203125 40.828125 9.5625 44.53125 
Q 6.9375 48.25 6.9375 53.421875 
Q 6.9375 61.234375 12.546875 66.546875 
Q 18.171875 71.875 27.484375 71.875 
Q 36.859375 71.875 42.578125 66.421875 
Q 48.296875 60.984375 48.296875 53.171875 
Q 48.296875 48.1875 45.671875 44.5 
Q 43.0625 40.828125 37.75 38.8125 
Q 44.34375 36.671875 47.78125 31.875 
Q 51.21875 27.09375 51.21875 20.453125 
Q 51.21875 11.28125 44.71875 5.03125 
Q 38.234375 -1.21875 27.640625 -1.21875 
Q 17.046875 -1.21875 10.546875 5.046875 
Q 4.046875 11.328125 4.046875 20.703125 
Q 4.046875 27.6875 7.59375 32.390625 
Q 11.140625 37.109375 17.671875 38.8125 
z
M 15.921875 53.71875 
Q 15.921875 48.640625 19.1875 45.40625 
Q 22.46875 42.1875 27.6875 42.1875 
Q 32.765625 42.1875 36.015625 45.375 
Q 39.265625 48.578125 39.265625 53.21875 
Q 39.265625 58.0625 35.90625 61.359375 
Q 32.5625 64.65625 27.59375 64.65625 
Q 22.5625 64.65625 19.234375 61.421875 
Q 15.921875 58.203125 15.921875 53.71875 
z
M 13.09375 20.65625 
Q 13.09375 16.890625 14.875 13.375 
Q 16.65625 9.859375 20.171875 7.921875 
Q 23.6875 6 27.734375 6 
Q 34.03125 6 38.125 10.046875 
Q 42.234375 14.109375 42.234375 20.359375 
Q 42.234375 26.703125 38.015625 30.859375 
Q 33.796875 35.015625 27.4375 35.015625 
Q 21.234375 35.015625 17.15625 30.90625 
Q 13.09375 26.8125 13.09375 20.65625 
z
" id="ArialMT-56"/>
      </defs>
      <g style="fill:#262626;" transform="translate(38.382969 48.662251)scale(0.11 -0.11)">
       <use xlink:href="#ArialMT-56"/>
      </g>
     </g>
    </g>
    <g id="text_17">
     <!-- Density -->
     <defs>
      <path d="M 7.71875 0 
L 7.71875 71.578125 
L 32.375 71.578125 
Q 40.71875 71.578125 45.125 70.5625 
Q 51.265625 69.140625 55.609375 65.4375 
Q 61.28125 60.640625 64.078125 53.1875 
Q 66.890625 45.75 66.890625 36.1875 
Q 66.890625 28.03125 64.984375 21.734375 
Q 63.09375 15.4375 60.109375 11.296875 
Q 57.125 7.171875 53.578125 4.796875 
Q 50.046875 2.4375 45.046875 1.21875 
Q 40.046875 0 33.546875 0 
z
M 17.1875 8.453125 
L 32.46875 8.453125 
Q 39.546875 8.453125 43.578125 9.765625 
Q 47.609375 11.078125 50 13.484375 
Q 53.375 16.84375 55.25 22.53125 
Q 57.125 28.21875 57.125 36.328125 
Q 57.125 47.5625 53.4375 53.59375 
Q 49.75 59.625 44.484375 61.671875 
Q 40.671875 63.140625 32.234375 63.140625 
L 17.1875 63.140625 
z
" id="ArialMT-68"/>
      <path d="M 6.59375 0 
L 6.59375 51.859375 
L 14.5 51.859375 
L 14.5 44.484375 
Q 20.21875 53.03125 31 53.03125 
Q 35.6875 53.03125 39.625 51.34375 
Q 43.5625 49.65625 45.515625 46.921875 
Q 47.46875 44.1875 48.25 40.4375 
Q 48.734375 37.984375 48.734375 31.890625 
L 48.734375 0 
L 39.9375 0 
L 39.9375 31.546875 
Q 39.9375 36.921875 38.90625 39.578125 
Q 37.890625 42.234375 35.28125 43.8125 
Q 32.671875 45.40625 29.15625 45.40625 
Q 23.53125 45.40625 19.453125 41.84375 
Q 15.375 38.28125 15.375 28.328125 
L 15.375 0 
z
" id="ArialMT-110"/>
      <path d="M 3.078125 15.484375 
L 11.765625 16.84375 
Q 12.5 11.625 15.84375 8.84375 
Q 19.1875 6.0625 25.203125 6.0625 
Q 31.25 6.0625 34.171875 8.515625 
Q 37.109375 10.984375 37.109375 14.3125 
Q 37.109375 17.28125 34.515625 19 
Q 32.71875 20.171875 25.53125 21.96875 
Q 15.875 24.421875 12.140625 26.203125 
Q 8.40625 27.984375 6.46875 31.125 
Q 4.546875 34.28125 4.546875 38.09375 
Q 4.546875 41.546875 6.125 44.5 
Q 7.71875 47.46875 10.453125 49.421875 
Q 12.5 50.921875 16.03125 51.96875 
Q 19.578125 53.03125 23.640625 53.03125 
Q 29.734375 53.03125 34.34375 51.265625 
Q 38.96875 49.515625 41.15625 46.5 
Q 43.359375 43.5 44.1875 38.484375 
L 35.59375 37.3125 
Q 35.015625 41.3125 32.203125 43.546875 
Q 29.390625 45.796875 24.265625 45.796875 
Q 18.21875 45.796875 15.625 43.796875 
Q 13.03125 41.796875 13.03125 39.109375 
Q 13.03125 37.40625 14.109375 36.03125 
Q 15.1875 34.625 17.484375 33.6875 
Q 18.796875 33.203125 25.25 31.453125 
Q 34.578125 28.953125 38.25 27.359375 
Q 41.9375 25.78125 44.03125 22.75 
Q 46.140625 19.734375 46.140625 15.234375 
Q 46.140625 10.84375 43.578125 6.953125 
Q 41.015625 3.078125 36.171875 0.953125 
Q 31.34375 -1.171875 25.25 -1.171875 
Q 15.140625 -1.171875 9.84375 3.03125 
Q 4.546875 7.234375 3.078125 15.484375 
z
" id="ArialMT-115"/>
      <path d="M 6.640625 61.46875 
L 6.640625 71.578125 
L 15.4375 71.578125 
L 15.4375 61.46875 
z
M 6.640625 0 
L 6.640625 51.859375 
L 15.4375 51.859375 
L 15.4375 0 
z
" id="ArialMT-105"/>
      <path d="M 6.203125 -19.96875 
L 5.21875 -11.71875 
Q 8.109375 -12.5 10.25 -12.5 
Q 13.1875 -12.5 14.9375 -11.515625 
Q 16.703125 -10.546875 17.828125 -8.796875 
Q 18.65625 -7.46875 20.515625 -2.25 
Q 20.75 -1.515625 21.296875 -0.09375 
L 1.609375 51.859375 
L 11.078125 51.859375 
L 21.875 21.828125 
Q 23.96875 16.109375 25.640625 9.8125 
Q 27.15625 15.875 29.25 21.625 
L 40.328125 51.859375 
L 49.125 51.859375 
L 29.390625 -0.875 
Q 26.21875 -9.421875 24.46875 -12.640625 
Q 22.125 -17 19.09375 -19.015625 
Q 16.0625 -21.046875 11.859375 -21.046875 
Q 9.328125 -21.046875 6.203125 -19.96875 
z
" id="ArialMT-121"/>
     </defs>
     <g style="fill:#262626;" transform="translate(31.857344 163.28625)rotate(-90)scale(0.12 -0.12)">
      <use xlink:href="#ArialMT-68"/>
      <use x="72.216797" xlink:href="#ArialMT-101"/>
      <use x="127.832031" xlink:href="#ArialMT-110"/>
      <use x="183.447266" xlink:href="#ArialMT-115"/>
      <use x="233.447266" xlink:href="#ArialMT-105"/>
      <use x="255.664062" xlink:href="#ArialMT-116"/>
      <use x="283.447266" xlink:href="#ArialMT-121"/>
     </g>
    </g>
   </g>
   <g id="LineCollection_1">
    <path clip-path="url(#p4e360446dd)" d="M 286.59893 252 
L 286.59893 241.128 
" style="fill:none;stroke:#4c72b0;"/>
    <path clip-path="url(#p4e360446dd)" d="M 164.595894 252 
L 164.595894 241.128 
" style="fill:none;stroke:#4c72b0;"/>
    <path clip-path="url(#p4e360446dd)" d="M 273.439034 252 
L 273.439034 241.128 
" style="fill:none;stroke:#4c72b0;"/>
    <path clip-path="url(#p4e360446dd)" d="M 221.716605 252 
L 221.716605 241.128 
" style="fill:none;stroke:#4c72b0;"/>
    <path clip-path="url(#p4e360446dd)" d="M 176.021272 252 
L 176.021272 241.128 
" style="fill:none;stroke:#4c72b0;"/>
    <path clip-path="url(#p4e360446dd)" d="M 233.837855 252 
L 233.837855 241.128 
" style="fill:none;stroke:#4c72b0;"/>
    <path clip-path="url(#p4e360446dd)" d="M 264.883263 252 
L 264.883263 241.128 
" style="fill:none;stroke:#4c72b0;"/>
    <path clip-path="url(#p4e360446dd)" d="M 228.916456 252 
L 228.916456 241.128 
" style="fill:none;stroke:#4c72b0;"/>
    <path clip-path="url(#p4e360446dd)" d="M 213.177582 252 
L 213.177582 241.128 
" style="fill:none;stroke:#4c72b0;"/>
    <path clip-path="url(#p4e360446dd)" d="M 148.636596 252 
L 148.636596 241.128 
" style="fill:none;stroke:#4c72b0;"/>
    <path clip-path="url(#p4e360446dd)" d="M 262.776889 252 
L 262.776889 241.128 
" style="fill:none;stroke:#4c72b0;"/>
    <path clip-path="url(#p4e360446dd)" d="M 218.65751 252 
L 218.65751 241.128 
" style="fill:none;stroke:#4c72b0;"/>
    <path clip-path="url(#p4e360446dd)" d="M 280.656226 252 
L 280.656226 241.128 
" style="fill:none;stroke:#4c72b0;"/>
    <path clip-path="url(#p4e360446dd)" d="M 223.288009 252 
L 223.288009 241.128 
" style="fill:none;stroke:#4c72b0;"/>
    <path clip-path="url(#p4e360446dd)" d="M 299.428032 252 
L 299.428032 241.128 
" style="fill:none;stroke:#4c72b0;"/>
    <path clip-path="url(#p4e360446dd)" d="M 295.249938 252 
L 295.249938 241.128 
" style="fill:none;stroke:#4c72b0;"/>
    <path clip-path="url(#p4e360446dd)" d="M 213.777699 252 
L 213.777699 241.128 
" style="fill:none;stroke:#4c72b0;"/>
    <path clip-path="url(#p4e360446dd)" d="M 231.184547 252 
L 231.184547 241.128 
" style="fill:none;stroke:#4c72b0;"/>
    <path clip-path="url(#p4e360446dd)" d="M 178.085671 252 
L 178.085671 241.128 
" style="fill:none;stroke:#4c72b0;"/>
    <path clip-path="url(#p4e360446dd)" d="M 164.006734 252 
L 164.006734 241.128 
" style="fill:none;stroke:#4c72b0;"/>
    <path clip-path="url(#p4e360446dd)" d="M 171.718762 252 
L 171.718762 241.128 
" style="fill:none;stroke:#4c72b0;"/>
    <path clip-path="url(#p4e360446dd)" d="M 294.410351 252 
L 294.410351 241.128 
" style="fill:none;stroke:#4c72b0;"/>
    <path clip-path="url(#p4e360446dd)" d="M 155.686386 252 
L 155.686386 241.128 
" style="fill:none;stroke:#4c72b0;"/>
    <path clip-path="url(#p4e360446dd)" d="M 264.590215 252 
L 264.590215 241.128 
" style="fill:none;stroke:#4c72b0;"/>
    <path clip-path="url(#p4e360446dd)" d="M 278.639026 252 
L 278.639026 241.128 
" style="fill:none;stroke:#4c72b0;"/>
    <path clip-path="url(#p4e360446dd)" d="M 204.444689 252 
L 204.444689 241.128 
" style="fill:none;stroke:#4c72b0;"/>
    <path clip-path="url(#p4e360446dd)" d="M 236.846351 252 
L 236.846351 241.128 
" style="fill:none;stroke:#4c72b0;"/>
    <path clip-path="url(#p4e360446dd)" d="M 198.796737 252 
L 198.796737 241.128 
" style="fill:none;stroke:#4c72b0;"/>
    <path clip-path="url(#p4e360446dd)" d="M 225.911037 252 
L 225.911037 241.128 
" style="fill:none;stroke:#4c72b0;"/>
    <path clip-path="url(#p4e360446dd)" d="M 123.806131 252 
L 123.806131 241.128 
" style="fill:none;stroke:#4c72b0;"/>
    <path clip-path="url(#p4e360446dd)" d="M 245.363565 252 
L 245.363565 241.128 
" style="fill:none;stroke:#4c72b0;"/>
    <path clip-path="url(#p4e360446dd)" d="M 275.162957 252 
L 275.162957 241.128 
" style="fill:none;stroke:#4c72b0;"/>
    <path clip-path="url(#p4e360446dd)" d="M 285.858262 252 
L 285.858262 241.128 
" style="fill:none;stroke:#4c72b0;"/>
    <path clip-path="url(#p4e360446dd)" d="M 236.313823 252 
L 236.313823 241.128 
" style="fill:none;stroke:#4c72b0;"/>
    <path clip-path="url(#p4e360446dd)" d="M 212.31782 252 
L 212.31782 241.128 
" style="fill:none;stroke:#4c72b0;"/>
    <path clip-path="url(#p4e360446dd)" d="M 294.707653 252 
L 294.707653 241.128 
" style="fill:none;stroke:#4c72b0;"/>
    <path clip-path="url(#p4e360446dd)" d="M 173.503252 252 
L 173.503252 241.128 
" style="fill:none;stroke:#4c72b0;"/>
    <path clip-path="url(#p4e360446dd)" d="M 260.44693 252 
L 260.44693 241.128 
" style="fill:none;stroke:#4c72b0;"/>
    <path clip-path="url(#p4e360446dd)" d="M 180.427998 252 
L 180.427998 241.128 
" style="fill:none;stroke:#4c72b0;"/>
    <path clip-path="url(#p4e360446dd)" d="M 283.01137 252 
L 283.01137 241.128 
" style="fill:none;stroke:#4c72b0;"/>
    <path clip-path="url(#p4e360446dd)" d="M 153.06554 252 
L 153.06554 241.128 
" style="fill:none;stroke:#4c72b0;"/>
    <path clip-path="url(#p4e360446dd)" d="M 218.37176 252 
L 218.37176 241.128 
" style="fill:none;stroke:#4c72b0;"/>
    <path clip-path="url(#p4e360446dd)" d="M 217.786135 252 
L 217.786135 241.128 
" style="fill:none;stroke:#4c72b0;"/>
    <path clip-path="url(#p4e360446dd)" d="M 265.43303 252 
L 265.43303 241.128 
" style="fill:none;stroke:#4c72b0;"/>
    <path clip-path="url(#p4e360446dd)" d="M 270.686091 252 
L 270.686091 241.128 
" style="fill:none;stroke:#4c72b0;"/>
    <path clip-path="url(#p4e360446dd)" d="M 234.67071 252 
L 234.67071 241.128 
" style="fill:none;stroke:#4c72b0;"/>
    <path clip-path="url(#p4e360446dd)" d="M 263.892161 252 
L 263.892161 241.128 
" style="fill:none;stroke:#4c72b0;"/>
    <path clip-path="url(#p4e360446dd)" d="M 215.618226 252 
L 215.618226 241.128 
" style="fill:none;stroke:#4c72b0;"/>
    <path clip-path="url(#p4e360446dd)" d="M 306.697767 252 
L 306.697767 241.128 
" style="fill:none;stroke:#4c72b0;"/>
    <path clip-path="url(#p4e360446dd)" d="M 292.424729 252 
L 292.424729 241.128 
" style="fill:none;stroke:#4c72b0;"/>
    <path clip-path="url(#p4e360446dd)" d="M 222.580038 252 
L 222.580038 241.128 
" style="fill:none;stroke:#4c72b0;"/>
    <path clip-path="url(#p4e360446dd)" d="M 139.126107 252 
L 139.126107 241.128 
" style="fill:none;stroke:#4c72b0;"/>
    <path clip-path="url(#p4e360446dd)" d="M 228.504471 252 
L 228.504471 241.128 
" style="fill:none;stroke:#4c72b0;"/>
    <path clip-path="url(#p4e360446dd)" d="M 295.709548 252 
L 295.709548 241.128 
" style="fill:none;stroke:#4c72b0;"/>
    <path clip-path="url(#p4e360446dd)" d="M 260.832781 252 
L 260.832781 241.128 
" style="fill:none;stroke:#4c72b0;"/>
    <path clip-path="url(#p4e360446dd)" d="M 278.017493 252 
L 278.017493 241.128 
" style="fill:none;stroke:#4c72b0;"/>
    <path clip-path="url(#p4e360446dd)" d="M 269.078342 252 
L 269.078342 241.128 
" style="fill:none;stroke:#4c72b0;"/>
    <path clip-path="url(#p4e360446dd)" d="M 237.418956 252 
L 237.418956 241.128 
" style="fill:none;stroke:#4c72b0;"/>
    <path clip-path="url(#p4e360446dd)" d="M 260.257842 252 
L 260.257842 241.128 
" style="fill:none;stroke:#4c72b0;"/>
    <path clip-path="url(#p4e360446dd)" d="M 221.454886 252 
L 221.454886 241.128 
" style="fill:none;stroke:#4c72b0;"/>
    <path clip-path="url(#p4e360446dd)" d="M 181.757253 252 
L 181.757253 241.128 
" style="fill:none;stroke:#4c72b0;"/>
    <path clip-path="url(#p4e360446dd)" d="M 178.981016 252 
L 178.981016 241.128 
" style="fill:none;stroke:#4c72b0;"/>
    <path clip-path="url(#p4e360446dd)" d="M 252.743652 252 
L 252.743652 241.128 
" style="fill:none;stroke:#4c72b0;"/>
    <path clip-path="url(#p4e360446dd)" d="M 223.700597 252 
L 223.700597 241.128 
" style="fill:none;stroke:#4c72b0;"/>
    <path clip-path="url(#p4e360446dd)" d="M 197.93663 252 
L 197.93663 241.128 
" style="fill:none;stroke:#4c72b0;"/>
    <path clip-path="url(#p4e360446dd)" d="M 271.633017 252 
L 271.633017 241.128 
" style="fill:none;stroke:#4c72b0;"/>
    <path clip-path="url(#p4e360446dd)" d="M 224.857032 252 
L 224.857032 241.128 
" style="fill:none;stroke:#4c72b0;"/>
    <path clip-path="url(#p4e360446dd)" d="M 228.127981 252 
L 228.127981 241.128 
" style="fill:none;stroke:#4c72b0;"/>
    <path clip-path="url(#p4e360446dd)" d="M 266.504062 252 
L 266.504062 241.128 
" style="fill:none;stroke:#4c72b0;"/>
    <path clip-path="url(#p4e360446dd)" d="M 208.049532 252 
L 208.049532 241.128 
" style="fill:none;stroke:#4c72b0;"/>
    <path clip-path="url(#p4e360446dd)" d="M 212.480259 252 
L 212.480259 241.128 
" style="fill:none;stroke:#4c72b0;"/>
    <path clip-path="url(#p4e360446dd)" d="M 211.488483 252 
L 211.488483 241.128 
" style="fill:none;stroke:#4c72b0;"/>
    <path clip-path="url(#p4e360446dd)" d="M 281.434894 252 
L 281.434894 241.128 
" style="fill:none;stroke:#4c72b0;"/>
    <path clip-path="url(#p4e360446dd)" d="M 242.922395 252 
L 242.922395 241.128 
" style="fill:none;stroke:#4c72b0;"/>
    <path clip-path="url(#p4e360446dd)" d="M 291.430274 252 
L 291.430274 241.128 
" style="fill:none;stroke:#4c72b0;"/>
    <path clip-path="url(#p4e360446dd)" d="M 193.014435 252 
L 193.014435 241.128 
" style="fill:none;stroke:#4c72b0;"/>
    <path clip-path="url(#p4e360446dd)" d="M 282.092736 252 
L 282.092736 241.128 
" style="fill:none;stroke:#4c72b0;"/>
    <path clip-path="url(#p4e360446dd)" d="M 157.075522 252 
L 157.075522 241.128 
" style="fill:none;stroke:#4c72b0;"/>
    <path clip-path="url(#p4e360446dd)" d="M 168.14388 252 
L 168.14388 241.128 
" style="fill:none;stroke:#4c72b0;"/>
    <path clip-path="url(#p4e360446dd)" d="M 264.784888 252 
L 264.784888 241.128 
" style="fill:none;stroke:#4c72b0;"/>
    <path clip-path="url(#p4e360446dd)" d="M 192.324168 252 
L 192.324168 241.128 
" style="fill:none;stroke:#4c72b0;"/>
    <path clip-path="url(#p4e360446dd)" d="M 282.23178 252 
L 282.23178 241.128 
" style="fill:none;stroke:#4c72b0;"/>
    <path clip-path="url(#p4e360446dd)" d="M 200.94707 252 
L 200.94707 241.128 
" style="fill:none;stroke:#4c72b0;"/>
    <path clip-path="url(#p4e360446dd)" d="M 268.500196 252 
L 268.500196 241.128 
" style="fill:none;stroke:#4c72b0;"/>
    <path clip-path="url(#p4e360446dd)" d="M 196.371337 252 
L 196.371337 241.128 
" style="fill:none;stroke:#4c72b0;"/>
    <path clip-path="url(#p4e360446dd)" d="M 240.046267 252 
L 240.046267 241.128 
" style="fill:none;stroke:#4c72b0;"/>
    <path clip-path="url(#p4e360446dd)" d="M 245.612194 252 
L 245.612194 241.128 
" style="fill:none;stroke:#4c72b0;"/>
    <path clip-path="url(#p4e360446dd)" d="M 244.582941 252 
L 244.582941 241.128 
" style="fill:none;stroke:#4c72b0;"/>
    <path clip-path="url(#p4e360446dd)" d="M 259.188179 252 
L 259.188179 241.128 
" style="fill:none;stroke:#4c72b0;"/>
    <path clip-path="url(#p4e360446dd)" d="M 271.1979 252 
L 271.1979 241.128 
" style="fill:none;stroke:#4c72b0;"/>
    <path clip-path="url(#p4e360446dd)" d="M 269.396575 252 
L 269.396575 241.128 
" style="fill:none;stroke:#4c72b0;"/>
    <path clip-path="url(#p4e360446dd)" d="M 235.224314 252 
L 235.224314 241.128 
" style="fill:none;stroke:#4c72b0;"/>
    <path clip-path="url(#p4e360446dd)" d="M 226.754162 252 
L 226.754162 241.128 
" style="fill:none;stroke:#4c72b0;"/>
    <path clip-path="url(#p4e360446dd)" d="M 276.748596 252 
L 276.748596 241.128 
" style="fill:none;stroke:#4c72b0;"/>
    <path clip-path="url(#p4e360446dd)" d="M 272.640772 252 
L 272.640772 241.128 
" style="fill:none;stroke:#4c72b0;"/>
    <path clip-path="url(#p4e360446dd)" d="M 176.696957 252 
L 176.696957 241.128 
" style="fill:none;stroke:#4c72b0;"/>
    <path clip-path="url(#p4e360446dd)" d="M 183.418929 252 
L 183.418929 241.128 
" style="fill:none;stroke:#4c72b0;"/>
    <path clip-path="url(#p4e360446dd)" d="M 287.726197 252 
L 287.726197 241.128 
" style="fill:none;stroke:#4c72b0;"/>
    <path clip-path="url(#p4e360446dd)" d="M 202.280797 252 
L 202.280797 241.128 
" style="fill:none;stroke:#4c72b0;"/>
    <path clip-path="url(#p4e360446dd)" d="M 237.067564 252 
L 237.067564 241.128 
" style="fill:none;stroke:#4c72b0;"/>
   </g>
   <g id="LineCollection_2">
    <path clip-path="url(#p4e360446dd)" d="M 251.417836 252 
L 251.417836 241.128 
" style="fill:none;stroke:#dd8452;"/>
    <path clip-path="url(#p4e360446dd)" d="M 233.666781 252 
L 233.666781 241.128 
" style="fill:none;stroke:#dd8452;"/>
    <path clip-path="url(#p4e360446dd)" d="M 287.963157 252 
L 287.963157 241.128 
" style="fill:none;stroke:#dd8452;"/>
    <path clip-path="url(#p4e360446dd)" d="M 198.701024 252 
L 198.701024 241.128 
" style="fill:none;stroke:#dd8452;"/>
    <path clip-path="url(#p4e360446dd)" d="M 313.204964 252 
L 313.204964 241.128 
" style="fill:none;stroke:#dd8452;"/>
    <path clip-path="url(#p4e360446dd)" d="M 280.1247 252 
L 280.1247 241.128 
" style="fill:none;stroke:#dd8452;"/>
    <path clip-path="url(#p4e360446dd)" d="M 312.273857 252 
L 312.273857 241.128 
" style="fill:none;stroke:#dd8452;"/>
    <path clip-path="url(#p4e360446dd)" d="M 301.693113 252 
L 301.693113 241.128 
" style="fill:none;stroke:#dd8452;"/>
    <path clip-path="url(#p4e360446dd)" d="M 183.923209 252 
L 183.923209 241.128 
" style="fill:none;stroke:#dd8452;"/>
    <path clip-path="url(#p4e360446dd)" d="M 211.159418 252 
L 211.159418 241.128 
" style="fill:none;stroke:#dd8452;"/>
    <path clip-path="url(#p4e360446dd)" d="M 265.396359 252 
L 265.396359 241.128 
" style="fill:none;stroke:#dd8452;"/>
    <path clip-path="url(#p4e360446dd)" d="M 289.566749 252 
L 289.566749 241.128 
" style="fill:none;stroke:#dd8452;"/>
    <path clip-path="url(#p4e360446dd)" d="M 287.830245 252 
L 287.830245 241.128 
" style="fill:none;stroke:#dd8452;"/>
    <path clip-path="url(#p4e360446dd)" d="M 231.247524 252 
L 231.247524 241.128 
" style="fill:none;stroke:#dd8452;"/>
    <path clip-path="url(#p4e360446dd)" d="M 206.67595 252 
L 206.67595 241.128 
" style="fill:none;stroke:#dd8452;"/>
    <path clip-path="url(#p4e360446dd)" d="M 229.689504 252 
L 229.689504 241.128 
" style="fill:none;stroke:#dd8452;"/>
    <path clip-path="url(#p4e360446dd)" d="M 191.656885 252 
L 191.656885 241.128 
" style="fill:none;stroke:#dd8452;"/>
    <path clip-path="url(#p4e360446dd)" d="M 321.08678 252 
L 321.08678 241.128 
" style="fill:none;stroke:#dd8452;"/>
    <path clip-path="url(#p4e360446dd)" d="M 227.22315 252 
L 227.22315 241.128 
" style="fill:none;stroke:#dd8452;"/>
    <path clip-path="url(#p4e360446dd)" d="M 306.966348 252 
L 306.966348 241.128 
" style="fill:none;stroke:#dd8452;"/>
    <path clip-path="url(#p4e360446dd)" d="M 296.244439 252 
L 296.244439 241.128 
" style="fill:none;stroke:#dd8452;"/>
    <path clip-path="url(#p4e360446dd)" d="M 224.330361 252 
L 224.330361 241.128 
" style="fill:none;stroke:#dd8452;"/>
    <path clip-path="url(#p4e360446dd)" d="M 283.863301 252 
L 283.863301 241.128 
" style="fill:none;stroke:#dd8452;"/>
    <path clip-path="url(#p4e360446dd)" d="M 276.245433 252 
L 276.245433 241.128 
" style="fill:none;stroke:#dd8452;"/>
    <path clip-path="url(#p4e360446dd)" d="M 198.669697 252 
L 198.669697 241.128 
" style="fill:none;stroke:#dd8452;"/>
    <path clip-path="url(#p4e360446dd)" d="M 308.593215 252 
L 308.593215 241.128 
" style="fill:none;stroke:#dd8452;"/>
    <path clip-path="url(#p4e360446dd)" d="M 209.198243 252 
L 209.198243 241.128 
" style="fill:none;stroke:#dd8452;"/>
    <path clip-path="url(#p4e360446dd)" d="M 297.39937 252 
L 297.39937 241.128 
" style="fill:none;stroke:#dd8452;"/>
    <path clip-path="url(#p4e360446dd)" d="M 296.317857 252 
L 296.317857 241.128 
" style="fill:none;stroke:#dd8452;"/>
    <path clip-path="url(#p4e360446dd)" d="M 216.672454 252 
L 216.672454 241.128 
" style="fill:none;stroke:#dd8452;"/>
    <path clip-path="url(#p4e360446dd)" d="M 305.920074 252 
L 305.920074 241.128 
" style="fill:none;stroke:#dd8452;"/>
    <path clip-path="url(#p4e360446dd)" d="M 183.274193 252 
L 183.274193 241.128 
" style="fill:none;stroke:#dd8452;"/>
    <path clip-path="url(#p4e360446dd)" d="M 216.776801 252 
L 216.776801 241.128 
" style="fill:none;stroke:#dd8452;"/>
    <path clip-path="url(#p4e360446dd)" d="M 237.281576 252 
L 237.281576 241.128 
" style="fill:none;stroke:#dd8452;"/>
    <path clip-path="url(#p4e360446dd)" d="M 185.538557 252 
L 185.538557 241.128 
" style="fill:none;stroke:#dd8452;"/>
    <path clip-path="url(#p4e360446dd)" d="M 221.430665 252 
L 221.430665 241.128 
" style="fill:none;stroke:#dd8452;"/>
    <path clip-path="url(#p4e360446dd)" d="M 267.832559 252 
L 267.832559 241.128 
" style="fill:none;stroke:#dd8452;"/>
    <path clip-path="url(#p4e360446dd)" d="M 307.307593 252 
L 307.307593 241.128 
" style="fill:none;stroke:#dd8452;"/>
    <path clip-path="url(#p4e360446dd)" d="M 302.367144 252 
L 302.367144 241.128 
" style="fill:none;stroke:#dd8452;"/>
    <path clip-path="url(#p4e360446dd)" d="M 302.716264 252 
L 302.716264 241.128 
" style="fill:none;stroke:#dd8452;"/>
    <path clip-path="url(#p4e360446dd)" d="M 186.058825 252 
L 186.058825 241.128 
" style="fill:none;stroke:#dd8452;"/>
    <path clip-path="url(#p4e360446dd)" d="M 172.558874 252 
L 172.558874 241.128 
" style="fill:none;stroke:#dd8452;"/>
    <path clip-path="url(#p4e360446dd)" d="M 197.633227 252 
L 197.633227 241.128 
" style="fill:none;stroke:#dd8452;"/>
    <path clip-path="url(#p4e360446dd)" d="M 199.190248 252 
L 199.190248 241.128 
" style="fill:none;stroke:#dd8452;"/>
    <path clip-path="url(#p4e360446dd)" d="M 240.029773 252 
L 240.029773 241.128 
" style="fill:none;stroke:#dd8452;"/>
    <path clip-path="url(#p4e360446dd)" d="M 272.94693 252 
L 272.94693 241.128 
" style="fill:none;stroke:#dd8452;"/>
    <path clip-path="url(#p4e360446dd)" d="M 215.242001 252 
L 215.242001 241.128 
" style="fill:none;stroke:#dd8452;"/>
    <path clip-path="url(#p4e360446dd)" d="M 250.042963 252 
L 250.042963 241.128 
" style="fill:none;stroke:#dd8452;"/>
    <path clip-path="url(#p4e360446dd)" d="M 156.937544 252 
L 156.937544 241.128 
" style="fill:none;stroke:#dd8452;"/>
    <path clip-path="url(#p4e360446dd)" d="M 214.584592 252 
L 214.584592 241.128 
" style="fill:none;stroke:#dd8452;"/>
    <path clip-path="url(#p4e360446dd)" d="M 187.184345 252 
L 187.184345 241.128 
" style="fill:none;stroke:#dd8452;"/>
    <path clip-path="url(#p4e360446dd)" d="M 291.977567 252 
L 291.977567 241.128 
" style="fill:none;stroke:#dd8452;"/>
    <path clip-path="url(#p4e360446dd)" d="M 255.154327 252 
L 255.154327 241.128 
" style="fill:none;stroke:#dd8452;"/>
    <path clip-path="url(#p4e360446dd)" d="M 309.357167 252 
L 309.357167 241.128 
" style="fill:none;stroke:#dd8452;"/>
    <path clip-path="url(#p4e360446dd)" d="M 256.613934 252 
L 256.613934 241.128 
" style="fill:none;stroke:#dd8452;"/>
    <path clip-path="url(#p4e360446dd)" d="M 264.191229 252 
L 264.191229 241.128 
" style="fill:none;stroke:#dd8452;"/>
    <path clip-path="url(#p4e360446dd)" d="M 272.286564 252 
L 272.286564 241.128 
" style="fill:none;stroke:#dd8452;"/>
    <path clip-path="url(#p4e360446dd)" d="M 245.191307 252 
L 245.191307 241.128 
" style="fill:none;stroke:#dd8452;"/>
    <path clip-path="url(#p4e360446dd)" d="M 217.232604 252 
L 217.232604 241.128 
" style="fill:none;stroke:#dd8452;"/>
    <path clip-path="url(#p4e360446dd)" d="M 203.457847 252 
L 203.457847 241.128 
" style="fill:none;stroke:#dd8452;"/>
    <path clip-path="url(#p4e360446dd)" d="M 227.189251 252 
L 227.189251 241.128 
" style="fill:none;stroke:#dd8452;"/>
    <path clip-path="url(#p4e360446dd)" d="M 275.946492 252 
L 275.946492 241.128 
" style="fill:none;stroke:#dd8452;"/>
    <path clip-path="url(#p4e360446dd)" d="M 253.865842 252 
L 253.865842 241.128 
" style="fill:none;stroke:#dd8452;"/>
    <path clip-path="url(#p4e360446dd)" d="M 249.715503 252 
L 249.715503 241.128 
" style="fill:none;stroke:#dd8452;"/>
    <path clip-path="url(#p4e360446dd)" d="M 217.117312 252 
L 217.117312 241.128 
" style="fill:none;stroke:#dd8452;"/>
    <path clip-path="url(#p4e360446dd)" d="M 248.170758 252 
L 248.170758 241.128 
" style="fill:none;stroke:#dd8452;"/>
    <path clip-path="url(#p4e360446dd)" d="M 263.248281 252 
L 263.248281 241.128 
" style="fill:none;stroke:#dd8452;"/>
    <path clip-path="url(#p4e360446dd)" d="M 295.140572 252 
L 295.140572 241.128 
" style="fill:none;stroke:#dd8452;"/>
    <path clip-path="url(#p4e360446dd)" d="M 283.687768 252 
L 283.687768 241.128 
" style="fill:none;stroke:#dd8452;"/>
    <path clip-path="url(#p4e360446dd)" d="M 292.461607 252 
L 292.461607 241.128 
" style="fill:none;stroke:#dd8452;"/>
    <path clip-path="url(#p4e360446dd)" d="M 240.134929 252 
L 240.134929 241.128 
" style="fill:none;stroke:#dd8452;"/>
    <path clip-path="url(#p4e360446dd)" d="M 212.372595 252 
L 212.372595 241.128 
" style="fill:none;stroke:#dd8452;"/>
    <path clip-path="url(#p4e360446dd)" d="M 202.675807 252 
L 202.675807 241.128 
" style="fill:none;stroke:#dd8452;"/>
    <path clip-path="url(#p4e360446dd)" d="M 235.752884 252 
L 235.752884 241.128 
" style="fill:none;stroke:#dd8452;"/>
    <path clip-path="url(#p4e360446dd)" d="M 317.722264 252 
L 317.722264 241.128 
" style="fill:none;stroke:#dd8452;"/>
    <path clip-path="url(#p4e360446dd)" d="M 257.975344 252 
L 257.975344 241.128 
" style="fill:none;stroke:#dd8452;"/>
    <path clip-path="url(#p4e360446dd)" d="M 286.520725 252 
L 286.520725 241.128 
" style="fill:none;stroke:#dd8452;"/>
    <path clip-path="url(#p4e360446dd)" d="M 276.366082 252 
L 276.366082 241.128 
" style="fill:none;stroke:#dd8452;"/>
    <path clip-path="url(#p4e360446dd)" d="M 201.332531 252 
L 201.332531 241.128 
" style="fill:none;stroke:#dd8452;"/>
    <path clip-path="url(#p4e360446dd)" d="M 253.723358 252 
L 253.723358 241.128 
" style="fill:none;stroke:#dd8452;"/>
    <path clip-path="url(#p4e360446dd)" d="M 253.548887 252 
L 253.548887 241.128 
" style="fill:none;stroke:#dd8452;"/>
    <path clip-path="url(#p4e360446dd)" d="M 243.789664 252 
L 243.789664 241.128 
" style="fill:none;stroke:#dd8452;"/>
    <path clip-path="url(#p4e360446dd)" d="M 287.735626 252 
L 287.735626 241.128 
" style="fill:none;stroke:#dd8452;"/>
    <path clip-path="url(#p4e360446dd)" d="M 209.268459 252 
L 209.268459 241.128 
" style="fill:none;stroke:#dd8452;"/>
    <path clip-path="url(#p4e360446dd)" d="M 190.358483 252 
L 190.358483 241.128 
" style="fill:none;stroke:#dd8452;"/>
    <path clip-path="url(#p4e360446dd)" d="M 207.267327 252 
L 207.267327 241.128 
" style="fill:none;stroke:#dd8452;"/>
    <path clip-path="url(#p4e360446dd)" d="M 277.704679 252 
L 277.704679 241.128 
" style="fill:none;stroke:#dd8452;"/>
    <path clip-path="url(#p4e360446dd)" d="M 305.188872 252 
L 305.188872 241.128 
" style="fill:none;stroke:#dd8452;"/>
    <path clip-path="url(#p4e360446dd)" d="M 266.698299 252 
L 266.698299 241.128 
" style="fill:none;stroke:#dd8452;"/>
    <path clip-path="url(#p4e360446dd)" d="M 208.037593 252 
L 208.037593 241.128 
" style="fill:none;stroke:#dd8452;"/>
    <path clip-path="url(#p4e360446dd)" d="M 157.630993 252 
L 157.630993 241.128 
" style="fill:none;stroke:#dd8452;"/>
    <path clip-path="url(#p4e360446dd)" d="M 251.939512 252 
L 251.939512 241.128 
" style="fill:none;stroke:#dd8452;"/>
    <path clip-path="url(#p4e360446dd)" d="M 298.592322 252 
L 298.592322 241.128 
" style="fill:none;stroke:#dd8452;"/>
    <path clip-path="url(#p4e360446dd)" d="M 275.721649 252 
L 275.721649 241.128 
" style="fill:none;stroke:#dd8452;"/>
    <path clip-path="url(#p4e360446dd)" d="M 238.849941 252 
L 238.849941 241.128 
" style="fill:none;stroke:#dd8452;"/>
    <path clip-path="url(#p4e360446dd)" d="M 223.861307 252 
L 223.861307 241.128 
" style="fill:none;stroke:#dd8452;"/>
    <path clip-path="url(#p4e360446dd)" d="M 260.551423 252 
L 260.551423 241.128 
" style="fill:none;stroke:#dd8452;"/>
    <path clip-path="url(#p4e360446dd)" d="M 289.433511 252 
L 289.433511 241.128 
" style="fill:none;stroke:#dd8452;"/>
    <path clip-path="url(#p4e360446dd)" d="M 270.164977 252 
L 270.164977 241.128 
" style="fill:none;stroke:#dd8452;"/>
    <path clip-path="url(#p4e360446dd)" d="M 231.302397 252 
L 231.302397 241.128 
" style="fill:none;stroke:#dd8452;"/>
   </g>
   <g id="line2d_16">
    <path clip-path="url(#p4e360446dd)" d="M 69.218182 251.832371 
L 76.117415 251.755948 
L 83.016648 251.426867 
L 87.616137 251.001087 
L 92.215625 250.337356 
L 96.815114 249.362324 
L 101.414603 248.000769 
L 103.714347 247.152259 
L 106.014092 246.18022 
L 108.313836 245.075969 
L 110.61358 243.830646 
L 112.913325 242.43494 
L 115.213069 240.878826 
L 117.512813 239.15137 
L 119.812558 237.240661 
L 122.112302 235.133935 
L 124.412046 232.817924 
L 126.711791 230.27945 
L 129.011535 227.506263 
L 131.31128 224.488063 
L 133.611024 221.217667 
L 135.910768 217.692204 
L 138.210513 213.914269 
L 140.510257 209.892902 
L 145.109746 201.192253 
L 149.709234 191.809642 
L 161.207956 167.655476 
L 165.807445 158.701529 
L 170.406934 150.52865 
L 175.006422 143.110772 
L 186.505144 125.53397 
L 188.804889 121.645367 
L 191.104633 117.482299 
L 193.404377 113.006836 
L 195.704122 108.204088 
L 198.003866 103.085899 
L 202.603355 92.094027 
L 209.502588 75.123872 
L 211.802332 69.846162 
L 214.102077 64.990703 
L 216.401821 60.686271 
L 218.701565 57.040926 
L 221.00131 54.133268 
L 223.301054 52.005285 
L 225.600798 50.657487 
L 227.900543 50.046889 
L 230.200287 50.088222 
L 232.500031 50.658499 
L 234.799776 51.604828 
L 241.699009 54.959091 
L 243.998753 55.691023 
L 246.298498 56.009512 
L 248.598242 55.842267 
L 250.897986 55.168466 
L 253.197731 54.022015 
L 255.497475 52.490548 
L 262.396708 47.13434 
L 264.696453 45.760245 
L 266.996197 44.952343 
L 269.295941 44.914286 
L 271.595686 45.823407 
L 273.89543 47.820795 
L 276.195174 51.004257 
L 278.494919 55.424415 
L 280.794663 61.083849 
L 283.094407 67.938994 
L 285.394152 75.904314 
L 287.693896 84.858199 
L 289.993641 94.650017 
L 294.593129 116.045982 
L 303.792107 160.832562 
L 306.091851 171.419594 
L 308.391595 181.47407 
L 310.69134 190.89099 
L 312.991084 199.590987 
L 315.290828 207.5206 
L 317.590573 214.651483 
L 319.890317 220.978654 
L 322.190062 226.517926 
L 324.489806 231.30274 
L 326.78955 235.380596 
L 329.089295 238.809331 
L 331.389039 241.653457 
L 333.688783 243.980754 
L 335.988528 245.859273 
L 338.288272 247.35485 
L 340.588016 248.529179 
L 342.887761 249.43846 
L 345.187505 250.132573 
L 347.48725 250.654717 
L 352.086738 251.322909 
L 356.686227 251.662168 
L 361.285716 251.80786 
L 361.285716 251.80786 
" style="fill:none;stroke:#4c72b0;stroke-linecap:round;stroke-width:1.5;"/>
   </g>
   <g id="line2d_17">
    <path clip-path="url(#p4e360446dd)" d="M 104.442506 251.734392 
L 110.800128 251.569598 
L 115.038542 251.251728 
L 119.276956 250.702884 
L 123.515371 249.840726 
L 127.753785 248.571865 
L 129.872992 247.756025 
L 131.992199 246.805209 
L 134.111407 245.710193 
L 136.230614 244.462851 
L 138.349821 243.055943 
L 140.469028 241.482686 
L 142.588235 239.736102 
L 144.707443 237.808209 
L 146.82665 235.689132 
L 148.945857 233.366254 
L 151.065064 230.823534 
L 153.184271 228.041134 
L 155.303478 224.995463 
L 157.422686 221.659735 
L 159.541893 218.00507 
L 161.6611 214.002114 
L 163.780307 209.623102 
L 165.899514 204.844212 
L 168.018722 199.648044 
L 170.137929 194.026007 
L 172.257136 187.980427 
L 174.376343 181.526184 
L 178.614757 167.519538 
L 182.853172 152.398219 
L 191.330001 121.293882 
L 195.568415 106.797329 
L 197.687622 100.135239 
L 199.806829 93.968676 
L 201.926036 88.36091 
L 204.045244 83.359946 
L 206.164451 78.996594 
L 208.283658 75.283203 
L 210.402865 72.213194 
L 212.522072 69.761453 
L 214.64128 67.885656 
L 216.760487 66.528458 
L 218.879694 65.620496 
L 220.998901 65.084008 
L 223.118108 64.83686 
L 225.237315 64.796714 
L 229.47573 65.03072 
L 233.714144 65.263111 
L 237.952559 65.160249 
L 240.071766 64.93596 
L 244.31018 64.145155 
L 248.548594 62.985232 
L 254.906216 60.847098 
L 265.502252 56.913 
L 271.859873 54.623276 
L 273.979081 53.980399 
L 276.098288 53.465129 
L 278.217495 53.134593 
L 280.336702 53.05623 
L 282.455909 53.30605 
L 284.575117 53.966043 
L 286.694324 55.120891 
L 288.813531 56.854108 
L 290.932738 59.243832 
L 293.051945 62.358478 
L 295.171152 66.252519 
L 297.29036 70.962621 
L 299.409567 76.504415 
L 301.528774 82.870109 
L 303.647981 90.027152 
L 305.767188 97.918072 
L 307.886396 106.461575 
L 312.12481 125.077206 
L 322.720846 174.248053 
L 324.840053 183.426016 
L 326.95926 192.108331 
L 329.078467 200.210697 
L 331.197675 207.67041 
L 333.316882 214.446884 
L 335.436089 220.521045 
L 337.555296 225.893745 
L 339.674503 230.58339 
L 341.79371 234.623012 
L 343.912918 238.05703 
L 346.032125 240.937934 
L 348.151332 243.323094 
L 350.270539 245.271861 
L 352.389746 246.843077 
L 354.508954 248.093066 
L 356.628161 249.07412 
L 358.747368 249.833474 
L 360.866575 250.412711 
L 362.985782 250.847541 
L 367.224197 251.398022 
L 371.462611 251.660097 
L 373.581818 251.716928 
L 373.581818 251.716928 
" style="fill:none;stroke:#dd8452;stroke-linecap:round;stroke-width:1.5;"/>
   </g>
   <g id="patch_3">
    <path d="M 54 252 
L 54 34.56 
" style="fill:none;stroke:#ffffff;stroke-linecap:square;stroke-linejoin:miter;stroke-width:1.25;"/>
   </g>
   <g id="patch_4">
    <path d="M 388.8 252 
L 388.8 34.56 
" style="fill:none;stroke:#ffffff;stroke-linecap:square;stroke-linejoin:miter;stroke-width:1.25;"/>
   </g>
   <g id="patch_5">
    <path d="M 54 252 
L 388.8 252 
" style="fill:none;stroke:#ffffff;stroke-linecap:square;stroke-linejoin:miter;stroke-width:1.25;"/>
   </g>
   <g id="patch_6">
    <path d="M 54 34.56 
L 388.8 34.56 
" style="fill:none;stroke:#ffffff;stroke-linecap:square;stroke-linejoin:miter;stroke-width:1.25;"/>
   </g>
   <g id="text_18">
    <!-- Phase 2 Growth Rate Distribution Comparison -->
    <defs>
     <path d="M 7.71875 0 
L 7.71875 71.578125 
L 34.71875 71.578125 
Q 41.84375 71.578125 45.609375 70.90625 
Q 50.875 70.015625 54.4375 67.546875 
Q 58.015625 65.09375 60.1875 60.640625 
Q 62.359375 56.203125 62.359375 50.875 
Q 62.359375 41.75 56.546875 35.421875 
Q 50.734375 29.109375 35.546875 29.109375 
L 17.1875 29.109375 
L 17.1875 0 
z
M 17.1875 37.546875 
L 35.6875 37.546875 
Q 44.875 37.546875 48.734375 40.96875 
Q 52.59375 44.390625 52.59375 50.59375 
Q 52.59375 55.078125 50.3125 58.265625 
Q 48.046875 61.46875 44.34375 62.5 
Q 41.9375 63.140625 35.5 63.140625 
L 17.1875 63.140625 
z
" id="ArialMT-80"/>
     <path d="M 14.703125 0 
L 6.546875 0 
L 6.546875 71.578125 
L 15.328125 71.578125 
L 15.328125 46.046875 
Q 20.90625 53.03125 29.546875 53.03125 
Q 34.328125 53.03125 38.59375 51.09375 
Q 42.875 49.171875 45.625 45.671875 
Q 48.390625 42.1875 49.953125 37.25 
Q 51.515625 32.328125 51.515625 26.703125 
Q 51.515625 13.375 44.921875 6.09375 
Q 38.328125 -1.171875 29.109375 -1.171875 
Q 19.921875 -1.171875 14.703125 6.5 
z
M 14.59375 26.3125 
Q 14.59375 17 17.140625 12.84375 
Q 21.296875 6.0625 28.375 6.0625 
Q 34.125 6.0625 38.328125 11.0625 
Q 42.53125 16.0625 42.53125 25.984375 
Q 42.53125 36.140625 38.5 40.96875 
Q 34.46875 45.796875 28.765625 45.796875 
Q 23 45.796875 18.796875 40.796875 
Q 14.59375 35.796875 14.59375 26.3125 
z
" id="ArialMT-98"/>
     <path d="M 40.578125 0 
L 40.578125 7.625 
Q 34.515625 -1.171875 24.125 -1.171875 
Q 19.53125 -1.171875 15.546875 0.578125 
Q 11.578125 2.34375 9.640625 5 
Q 7.71875 7.671875 6.9375 11.53125 
Q 6.390625 14.109375 6.390625 19.734375 
L 6.390625 51.859375 
L 15.1875 51.859375 
L 15.1875 23.09375 
Q 15.1875 16.21875 15.71875 13.8125 
Q 16.546875 10.359375 19.234375 8.375 
Q 21.921875 6.390625 25.875 6.390625 
Q 29.828125 6.390625 33.296875 8.421875 
Q 36.765625 10.453125 38.203125 13.9375 
Q 39.65625 17.4375 39.65625 24.078125 
L 39.65625 51.859375 
L 48.4375 51.859375 
L 48.4375 0 
z
" id="ArialMT-117"/>
     <path d="M 58.796875 25.09375 
L 68.265625 22.703125 
Q 65.28125 11.03125 57.546875 4.90625 
Q 49.8125 -1.21875 38.625 -1.21875 
Q 27.046875 -1.21875 19.796875 3.484375 
Q 12.546875 8.203125 8.765625 17.140625 
Q 4.984375 26.078125 4.984375 36.328125 
Q 4.984375 47.515625 9.25 55.828125 
Q 13.53125 64.15625 21.40625 68.46875 
Q 29.296875 72.796875 38.765625 72.796875 
Q 49.515625 72.796875 56.828125 67.328125 
Q 64.15625 61.859375 67.046875 51.953125 
L 57.71875 49.75 
Q 55.21875 57.5625 50.484375 61.125 
Q 45.75 64.703125 38.578125 64.703125 
Q 30.328125 64.703125 24.78125 60.734375 
Q 19.234375 56.78125 16.984375 50.109375 
Q 14.75 43.453125 14.75 36.375 
Q 14.75 27.25 17.40625 20.4375 
Q 20.0625 13.625 25.671875 10.25 
Q 31.296875 6.890625 37.84375 6.890625 
Q 45.796875 6.890625 51.3125 11.46875 
Q 56.84375 16.0625 58.796875 25.09375 
z
" id="ArialMT-67"/>
     <path d="M 6.59375 0 
L 6.59375 51.859375 
L 14.453125 51.859375 
L 14.453125 44.578125 
Q 16.890625 48.390625 20.9375 50.703125 
Q 25 53.03125 30.171875 53.03125 
Q 35.9375 53.03125 39.625 50.640625 
Q 43.3125 48.25 44.828125 43.953125 
Q 50.984375 53.03125 60.84375 53.03125 
Q 68.5625 53.03125 72.703125 48.75 
Q 76.859375 44.484375 76.859375 35.59375 
L 76.859375 0 
L 68.109375 0 
L 68.109375 32.671875 
Q 68.109375 37.9375 67.25 40.25 
Q 66.40625 42.578125 64.15625 43.984375 
Q 61.921875 45.40625 58.890625 45.40625 
Q 53.421875 45.40625 49.796875 41.765625 
Q 46.1875 38.140625 46.1875 30.125 
L 46.1875 0 
L 37.40625 0 
L 37.40625 33.6875 
Q 37.40625 39.546875 35.25 42.46875 
Q 33.109375 45.40625 28.21875 45.40625 
Q 24.515625 45.40625 21.359375 43.453125 
Q 18.21875 41.5 16.796875 37.734375 
Q 15.375 33.984375 15.375 26.90625 
L 15.375 0 
z
" id="ArialMT-109"/>
     <path d="M 6.59375 -19.875 
L 6.59375 51.859375 
L 14.59375 51.859375 
L 14.59375 45.125 
Q 17.4375 49.078125 21 51.046875 
Q 24.5625 53.03125 29.640625 53.03125 
Q 36.28125 53.03125 41.359375 49.609375 
Q 46.4375 46.1875 49.015625 39.953125 
Q 51.609375 33.734375 51.609375 26.3125 
Q 51.609375 18.359375 48.75 11.984375 
Q 45.90625 5.609375 40.453125 2.21875 
Q 35.015625 -1.171875 29 -1.171875 
Q 24.609375 -1.171875 21.109375 0.6875 
Q 17.625 2.546875 15.375 5.375 
L 15.375 -19.875 
z
M 14.546875 25.640625 
Q 14.546875 15.625 18.59375 10.84375 
Q 22.65625 6.0625 28.421875 6.0625 
Q 34.28125 6.0625 38.453125 11.015625 
Q 42.625 15.96875 42.625 26.375 
Q 42.625 36.28125 38.546875 41.203125 
Q 34.46875 46.140625 28.8125 46.140625 
Q 23.1875 46.140625 18.859375 40.890625 
Q 14.546875 35.640625 14.546875 25.640625 
z
" id="ArialMT-112"/>
    </defs>
    <g style="fill:#262626;" transform="translate(98.35125 28.56)scale(0.12 -0.12)">
     <use xlink:href="#ArialMT-80"/>
     <use x="66.699219" xlink:href="#ArialMT-104"/>
     <use x="122.314453" xlink:href="#ArialMT-97"/>
     <use x="177.929688" xlink:href="#ArialMT-115"/>
     <use x="227.929688" xlink:href="#ArialMT-101"/>
     <use x="283.544922" xlink:href="#ArialMT-32"/>
     <use x="311.328125" xlink:href="#ArialMT-50"/>
     <use x="366.943359" xlink:href="#ArialMT-32"/>
     <use x="394.726562" xlink:href="#ArialMT-71"/>
     <use x="472.509766" xlink:href="#ArialMT-114"/>
     <use x="505.810547" xlink:href="#ArialMT-111"/>
     <use x="561.425781" xlink:href="#ArialMT-119"/>
     <use x="633.642578" xlink:href="#ArialMT-116"/>
     <use x="661.425781" xlink:href="#ArialMT-104"/>
     <use x="717.041016" xlink:href="#ArialMT-32"/>
     <use x="744.824219" xlink:href="#ArialMT-82"/>
     <use x="817.041016" xlink:href="#ArialMT-97"/>
     <use x="872.65625" xlink:href="#ArialMT-116"/>
     <use x="900.439453" xlink:href="#ArialMT-101"/>
     <use x="956.054688" xlink:href="#ArialMT-32"/>
     <use x="983.837891" xlink:href="#ArialMT-68"/>
     <use x="1056.054688" xlink:href="#ArialMT-105"/>
     <use x="1078.271484" xlink:href="#ArialMT-115"/>
     <use x="1128.271484" xlink:href="#ArialMT-116"/>
     <use x="1156.054688" xlink:href="#ArialMT-114"/>
     <use x="1189.355469" xlink:href="#ArialMT-105"/>
     <use x="1211.572266" xlink:href="#ArialMT-98"/>
     <use x="1267.1875" xlink:href="#ArialMT-117"/>
     <use x="1322.802734" xlink:href="#ArialMT-116"/>
     <use x="1350.585938" xlink:href="#ArialMT-105"/>
     <use x="1372.802734" xlink:href="#ArialMT-111"/>
     <use x="1428.417969" xlink:href="#ArialMT-110"/>
     <use x="1484.033203" xlink:href="#ArialMT-32"/>
     <use x="1511.816406" xlink:href="#ArialMT-67"/>
     <use x="1584.033203" xlink:href="#ArialMT-111"/>
     <use x="1639.648438" xlink:href="#ArialMT-109"/>
     <use x="1722.949219" xlink:href="#ArialMT-112"/>
     <use x="1778.564453" xlink:href="#ArialMT-97"/>
     <use x="1834.179688" xlink:href="#ArialMT-114"/>
     <use x="1867.480469" xlink:href="#ArialMT-105"/>
     <use x="1889.697266" xlink:href="#ArialMT-115"/>
     <use x="1939.697266" xlink:href="#ArialMT-111"/>
     <use x="1995.3125" xlink:href="#ArialMT-110"/>
    </g>
   </g>
   <g id="legend_1">
    <g id="patch_7">
     <path d="M 61.7 74.479688 
L 149.485156 74.479688 
Q 151.685156 74.479688 151.685156 72.279688 
L 151.685156 42.26 
Q 151.685156 40.06 149.485156 40.06 
L 61.7 40.06 
Q 59.5 40.06 59.5 42.26 
L 59.5 72.279688 
Q 59.5 74.479688 61.7 74.479688 
z
" style="fill:#eaeaf2;opacity:0.8;stroke:#cccccc;stroke-linejoin:miter;"/>
    </g>
    <g id="line2d_18">
     <path d="M 63.9 48.483594 
L 85.9 48.483594 
" style="fill:none;stroke:#4c72b0;"/>
    </g>
    <g id="text_19">
     <!-- Scenario 1 -->
     <defs>
      <path d="M 4.5 23 
L 13.421875 23.78125 
Q 14.0625 18.40625 16.375 14.96875 
Q 18.703125 11.53125 23.578125 9.40625 
Q 28.46875 7.28125 34.578125 7.28125 
Q 39.984375 7.28125 44.140625 8.890625 
Q 48.296875 10.5 50.3125 13.296875 
Q 52.34375 16.109375 52.34375 19.4375 
Q 52.34375 22.796875 50.390625 25.3125 
Q 48.4375 27.828125 43.953125 29.546875 
Q 41.0625 30.671875 31.203125 33.03125 
Q 21.34375 35.40625 17.390625 37.5 
Q 12.25 40.1875 9.734375 44.15625 
Q 7.234375 48.140625 7.234375 53.078125 
Q 7.234375 58.5 10.296875 63.203125 
Q 13.375 67.921875 19.28125 70.359375 
Q 25.203125 72.796875 32.421875 72.796875 
Q 40.375 72.796875 46.453125 70.234375 
Q 52.546875 67.671875 55.8125 62.6875 
Q 59.078125 57.71875 59.328125 51.421875 
L 50.25 50.734375 
Q 49.515625 57.515625 45.28125 60.984375 
Q 41.0625 64.453125 32.8125 64.453125 
Q 24.21875 64.453125 20.28125 61.296875 
Q 16.359375 58.15625 16.359375 53.71875 
Q 16.359375 49.859375 19.140625 47.359375 
Q 21.875 44.875 33.421875 42.265625 
Q 44.96875 39.65625 49.265625 37.703125 
Q 55.515625 34.8125 58.484375 30.390625 
Q 61.46875 25.984375 61.46875 20.21875 
Q 61.46875 14.5 58.203125 9.4375 
Q 54.9375 4.390625 48.796875 1.578125 
Q 42.671875 -1.21875 35.015625 -1.21875 
Q 25.296875 -1.21875 18.71875 1.609375 
Q 12.15625 4.4375 8.421875 10.125 
Q 4.6875 15.828125 4.5 23 
z
" id="ArialMT-83"/>
      <path d="M 40.4375 19 
L 49.078125 17.875 
Q 47.65625 8.9375 41.8125 3.875 
Q 35.984375 -1.171875 27.484375 -1.171875 
Q 16.84375 -1.171875 10.375 5.78125 
Q 3.90625 12.75 3.90625 25.734375 
Q 3.90625 34.125 6.6875 40.421875 
Q 9.46875 46.734375 15.15625 49.875 
Q 20.84375 53.03125 27.546875 53.03125 
Q 35.984375 53.03125 41.359375 48.75 
Q 46.734375 44.484375 48.25 36.625 
L 39.703125 35.296875 
Q 38.484375 40.53125 35.375 43.15625 
Q 32.28125 45.796875 27.875 45.796875 
Q 21.234375 45.796875 17.078125 41.03125 
Q 12.9375 36.28125 12.9375 25.984375 
Q 12.9375 15.53125 16.9375 10.796875 
Q 20.953125 6.0625 27.390625 6.0625 
Q 32.5625 6.0625 36.03125 9.234375 
Q 39.5 12.40625 40.4375 19 
z
" id="ArialMT-99"/>
     </defs>
     <g style="fill:#262626;" transform="translate(94.7 52.333594)scale(0.11 -0.11)">
      <use xlink:href="#ArialMT-83"/>
      <use x="66.699219" xlink:href="#ArialMT-99"/>
      <use x="116.699219" xlink:href="#ArialMT-101"/>
      <use x="172.314453" xlink:href="#ArialMT-110"/>
      <use x="227.929688" xlink:href="#ArialMT-97"/>
      <use x="283.544922" xlink:href="#ArialMT-114"/>
      <use x="316.845703" xlink:href="#ArialMT-105"/>
      <use x="339.0625" xlink:href="#ArialMT-111"/>
      <use x="394.677734" xlink:href="#ArialMT-32"/>
      <use x="422.460938" xlink:href="#ArialMT-49"/>
     </g>
    </g>
    <g id="line2d_19">
     <path d="M 63.9 64.043438 
L 85.9 64.043438 
" style="fill:none;stroke:#dd8452;"/>
    </g>
    <g id="text_20">
     <!-- Scenario 2 -->
     <g style="fill:#262626;" transform="translate(94.7 67.893438)scale(0.11 -0.11)">
      <use xlink:href="#ArialMT-83"/>
      <use x="66.699219" xlink:href="#ArialMT-99"/>
      <use x="116.699219" xlink:href="#ArialMT-101"/>
      <use x="172.314453" xlink:href="#ArialMT-110"/>
      <use x="227.929688" xlink:href="#ArialMT-97"/>
      <use x="283.544922" xlink:href="#ArialMT-114"/>
      <use x="316.845703" xlink:href="#ArialMT-105"/>
      <use x="339.0625" xlink:href="#ArialMT-111"/>
      <use x="394.677734" xlink:href="#ArialMT-32"/>
      <use x="422.460938" xlink:href="#ArialMT-50"/>
     </g>
    </g>
   </g>
  </g>
 </g>
 <defs>
  <clipPath id="p4e360446dd">
   <rect height="217.44" width="334.8" x="54" y="34.56"/>
  </clipPath>
 </defs>
</svg>
